<?xml version="1.0" encoding="UTF-8"?>
<svg viewBox="0 0 294 300" xmlns="http://www.w3.org/2000/svg">
 <path d="m213.73 291.62c0.31784-0.87 0.57791-2.3937 0.57791-3.386 0-3.2211 6.3451-22.346 9.7982-29.532 1.8499-3.85 4.2283-9.3943 5.2854-12.321 1.7383-4.812 1.7953-5.6979 0.59615-9.2676-1.2111-3.6054-1.0637-6.9118 0.30814-6.9118 0.30296 0 1.4912 0.9279 2.6406 2.062l2.0897 2.062-1.3685-6.2217c-1.8193-8.2712-3.5422-11.534-6.5023-12.314-1.3488-0.35556-2.2225-1.0371-1.9416-1.5145 1.108-1.883-0.72475-6.8001-3.1363-8.4146l-2.533-1.6958 2.6182 0.6269c2.0184 0.48326 2.6182 0.25841 2.6182-0.98152 0-0.88463-0.42844-1.6084-0.95207-1.6084-1.445 0-1.1378-2.9478 0.48479-4.652 0.79028-0.83005 1.1818-1.9426 0.8701-2.4724-0.31171-0.52976-0.096146-1.5588 0.47903-2.2867 1.3099-1.6578-0.18665-3.1293-4.2194-4.1488-1.568-0.39639-3.9824-1.3188-5.3654-2.0497-2.5007-1.3217-2.518-1.3045-3.1526 3.1404-0.35095 2.4581-1.0902 4.4693-1.6428 4.4693-0.55455 0-0.80371 1.1046-0.55609 2.4651 0.24676 1.3558-0.024612 2.6716-0.60306 2.9239-0.68123 0.29715-0.54863 0.83786 0.37639 1.5349 1.0594 0.79829 1.1362 1.275 0.29759 1.8465-1.918 1.3069-3.1543 5.8291-1.9418 7.1027 0.7959 0.83597 0.54868 1.127-0.95744 1.127-1.9241 0-3.9554 3.4462-2.7671 4.6944 0.2847 0.29903-0.074005 1.1651-0.79713 1.9246-1.4878 1.5626-2.7986 1.8625-1.9675 0.45006 0.30127-0.51201 0.1171-1.2105-0.40927-1.5522-0.6044-0.39233-0.4335-1.4605 0.46385-2.8989 1.5418-2.4716 1.0644-3.798-1.0591-2.9421-1.2378 0.4989-1.9448-2.1752-1.3684-5.1759 0.10567-0.55-0.11101-0.68164-0.48148-0.29251-0.37047 0.3891-1.4079-0.245-2.3053-1.4091-2.0278-2.6303-4.3605-1.6394-2.703 1.1482 0.60625 1.0196 1.6686 1.6256 2.3607 1.3466 0.82584-0.33284 1.2534 0.30304 1.2438 1.8498-0.011154 1.8024-0.21809 2.0192-0.87953 0.92128-0.71681-1.1898-1.1219-1.2117-2.3656-0.12755-1.2613 1.0995-1.5007 1.0494-1.5007-0.31432 0-2.105-0.89961-2.059-2.4952 0.12756-1.1164 1.53-1.3971 1.5614-2.2326 0.25-0.7282-1.143-0.95908-1.1802-0.97018-0.15637-0.008011 0.73897 0.8423 1.579 1.8896 1.8666 1.9448 0.5342 2.6748 2.2898 0.95207 2.2898-0.52364 0-0.95207 0.62714-0.95207 1.3937 0 1.1227-0.72243 1.2011-3.716 0.40298-3.2391-0.86356-3.9722-0.72159-5.7125 1.1063-1.0981 1.1533-1.9965 2.8041-1.9965 3.6684 0 1.4286 0.13602 1.4286 1.4961 0 0.82286-0.86429 1.9758-1.5714 2.5622-1.5714 0.5863 0 0.27603 0.60674-0.68951 1.3483-1.1179 0.85855-1.473 1.8284-0.97786 2.6699 0.56094 0.95329 0.34462 1.1471-0.77614 0.69537-2.1932-0.88396-2.9563 0.94684-0.92076 2.209 1.5414 0.95573 1.4954 1.1017-0.53648 1.7002-1.3452 0.39627-1.8023 0.92758-1.1579 1.3459 1.6685 1.0831 0.069641 4.0296-2.1958 4.0466-1.1815 0.008865-1.6024 0.32457-0.99992 0.75 0.57222 0.40407 1.3057 2.1679 1.63 3.9197 0.48039 2.5952 0.28775 3.1718-1.0404 3.1139-2.7272-0.11899-6.8664 2.0616-6.8664 3.6174 0 0.80617-0.41066 1.7323-0.91258 2.0581-0.5464 0.35469-0.74355-0.9257-0.49136-3.191 0.32661-2.9338 0.20023-3.3904-0.56284-2.0334-1.3743 2.4439-2.7863 2.1824-2.6992-0.5 0.040192-1.2375-0.21211-3.1954-0.56062-4.3509-0.40659-1.348-0.071045-2.6919 0.93636-3.75 0.86352-0.907 1.111-1.6491 0.54997-1.6491-1.6663 0-1.1588-1.8153 0.64606-2.3107 1.5868-0.43555 1.5868-0.46284 0-0.57333-1.9624-0.13663-2.1279-1.1976-0.47604-3.052 0.97552-1.0952 0.80389-1.2382-0.95209-0.79362-2.1618 0.54739-2.9513-0.62706-1.1901-1.7703 1.815-1.1782 0.93939-2.5001-1.6661-2.5153-1.44-0.008423-2.1522-0.34592-1.5826-0.75 1.3495-0.95741 2.3754-5.2347 1.2555-5.2347-0.47461 0-0.86295-0.675-0.86295-1.5 0-1.8082-1.1109-1.9332-2.6658-0.3-0.88861 0.93333-1.1425 0.83534-1.1425-0.44098 0-0.90254 0.40973-1.907 0.91049-2.232 0.50079-0.32507 0.64833-1.3087 0.32785-2.1858-0.46597-1.2755-0.8511-1.0565-1.9238 1.0939-1.705 3.4179-3.5122 2.8327-3.8972-1.2621-0.16409-1.7452-0.72492-3.173-1.2463-3.173-0.52136 0-0.70145-0.4189-0.40019-0.93089 0.3013-0.51201 0.14195-1.1944-0.35405-1.5163-0.496-0.32198-1.1709-0.12807-1.4998 0.43089-0.32892 0.55898-1.4549 1.0163-2.5022 1.0163s-1.6394-0.45-1.3158-1c0.98813-1.6793-0.46992-3.2502-1.8777-2.023-0.91031 0.7935-1.3843 0.65756-1.8147-0.5204-0.39973-1.0941-1.2082-1.3859-2.576-0.92992-1.4275 0.47588-2.3979 0.058105-3.4179-1.4715-0.9611-1.4412-2.0175-1.9383-3.2476-1.5282-1.2669 0.42233-1.8232 0.12953-1.8232-0.95958 0-1.7403-1.5605-2.1503-2.0703-0.54396-0.18896 0.59541-1.5864 0.75842-3.3415 0.38974-2.1708-0.45601-2.8624-1.056-2.4664-2.1398 0.45217-1.2377 0.20297-1.3109-1.3983-0.41075-1.4626 0.82217-2.1973 0.78047-2.9461-0.16721-1.3439-1.7008 0.20235-4.1494 2.1297-3.3725 0.8383 0.33788 1.5242 0.22659 1.5242-0.2473 0-1.6494-3.0202-2.061-7.136-0.9725-4.4221 1.1695-12.919-0.081924-15.433-2.273-0.99602-0.86822-1.148-0.76038-0.69104 0.49037 0.32219 0.88185 1.3466 1.857 2.2764 2.167 3.2884 1.0962 5.1154 4.3626 5.1154 9.1454 0 5.239-0.90794 6.2558-9.7414 10.909-2.9333 1.5451-6.9313 3.8553-8.8846 5.1338s-4.1338 2.3245-4.8456 2.3245c-0.71182 0-1.8642 1.2375-2.5608 2.75-1.057 2.2948-1.3324 2.4482-1.6642 0.92658-0.24739-1.1346-0.93509-1.6068-1.8203-1.25-0.78248 0.31538-2.5658 0.58839-3.963 0.6067l-2.5404 0.0333 2.265 1.9815c2.1559 1.8861 2.3312 1.8965 3.6409 0.21672 0.75678-0.97061 1.1047-1.2022 0.7731-0.51474-0.77139 1.5995 2.5254 1.6824 4.0306 0.10135 1.4515-1.5246 6.1118 1.5472 5.3812 3.5469-0.28072 0.76836 0.46922 2.1142 1.6706 2.998l2.18 1.6037h-2.5127c-1.382 0-2.7288-0.5625-2.9929-1.25-0.30114-0.78384-0.50826-0.63237-0.55539 0.40616-0.055466 1.2224-1.3804 1.8447-5.0589 2.3761-4.743 0.68516-5.0764 0.58203-6.9026-2.1345-1.0554-1.57-3.0334-3.9948-4.3957-5.3886-4.2313-4.3291-5.7143-8.6012-6.3039-18.159-0.32283-5.234-0.87574-8.4288-1.3263-7.6632-0.42493 0.72211-0.60399 4.6183-0.3979 8.6583 0.32388 6.349 0.20061 7.0953-0.90889 5.5016-1.909-2.7421-2.7994-0.92241-1.1419 2.3338 0.78925 1.5506 3.0583 6.3557 5.0424 10.678 2.06 4.4876 3.8326 7.2759 4.1322 6.5 1.6625-4.3041 5.4095 0.75595 5.6039 7.5675 0.061607 2.1594 0.46789 4.1844 0.90282 4.5 0.43493 0.31555 1.3413 2.0039 2.014 3.7519 0.67277 1.748 1.8266 3.4214 2.5642 3.7186 1.0666 0.42989 1.3409-0.76048 1.3409-5.8174 0-4.7921 0.45152-6.9392 1.8334-8.7186 1.6763-2.1585 1.8902-2.2076 2.4956-0.57379 1.1343 3.0612 5.5274 4.7572 10.601 4.0927 4.5242-0.59248 11.345-2.557 15.06-4.3379 6.4509-3.0918 11.73-5.1353 19.352-7.4907 8.1026-2.504 8.7762-2.5684 10.983-1.0494 1.2933 0.89002 2.5986 2.295 2.9008 3.1222 0.30222 0.82721 1.3518 1.3627 2.3324 1.19 1.0625-0.18713 3.5752 1.4208 6.2188 3.9796 2.4981 2.418 4.9069 3.9878 5.5142 3.5936 0.74402-0.48297 0.88826 0.046036 0.46529 1.7064-0.33714 1.3235-0.61887 3.1939-0.62602 4.1564-0.007141 0.96251-0.65564 1.75-1.4411 1.75-1.6682 0-1.8982 1.5768-0.37439 2.566 0.73727 0.47861 0.67336 0.93094-0.21289 1.5062-0.75005 0.48688-1.5621 0.33394-1.9912-0.375-0.4906-0.81059-0.72932-0.63206-0.7392 0.55278-0.008011 0.96251-0.44301 1.75-0.96666 1.75-1.4883 0-4.4444 3.4958-4.0382 4.7756 0.20082 0.63284-0.70538 1.4328-2.0138 1.7777-1.3084 0.34494-2.6107 1.2615-2.894 2.0369-0.2833 0.77536-1.0258 1.4098-1.6501 1.4098-0.62427 0-2.3216 1.3959-3.7718 3.102-1.4503 1.7062-3.0984 2.8025-3.6625 2.4362-0.56413-0.36621-1.6996 0.041992-2.5233 0.9071-0.82365 0.86514-1.9643 1.27-2.5347 0.89972-0.65113-0.42267-0.8221-0.084717-0.45941 0.90805 0.60107 1.6452-0.71516 2.5417-4.985 3.3954-1.2928 0.25848-2.8452 0.90106-3.4496 1.428-0.60445 0.52689-1.796 0.67709-2.6478 0.33374-0.88463-0.35654-1.5488-0.12421-1.5488 0.54178 0 0.6413-0.42843 0.88788-0.95208 0.54797-0.52363-0.33994-0.95208-0.14148-0.95208 0.44098s-0.42843 1.059-0.95208 1.059c-0.52363 0-0.95863-0.78751-0.96665-1.75-0.008537-1.0265-0.30377-1.3192-0.71406-0.70807-0.38472 0.57306-2.498 1.6498-4.6961 2.3928-2.1982 0.74301-4.2369 2.0083-4.5304 2.8118-0.31462 0.86108-1.1639 1.2069-2.0686 0.84228-1.1745-0.47339-1.4181-0.14969-1.0375 1.3789 0.35164 1.4123-0.46112 2.8814-2.7746 5.0148-1.7996 1.6596-3.6704 3.0174-4.1574 3.0174-0.48698 0-1.344 0.89999-1.9045 2-0.99566 1.954-0.72404 2 11.824 2h12.843l0.6339-3.5491c0.34866-1.952 1.2555-4.202 2.0153-5 3.0181-3.17 11.17-0.81174 17.801 5.1496l3.7812 3.3995h22.52c12.386 0 22.814-0.30917 23.174-0.68704 0.95735-1.0056 4.4236-1.1198 4.4236-0.14584 0 0.45807 0.69513 0.83289 1.5447 0.83289 1.2072 0 1.3059-0.30228 0.45172-1.3832-0.84282-1.0666-0.76053-1.5172 0.35948-1.9686 0.99483-0.40097 1.4524 0.026947 1.4524 1.3582 0 2.9291 4.918 1.5277 9.2439-2.6342 1.9278-1.8547 3.8499-3.3722 4.2712-3.3722 1.5842 0 0.67928 2.0136-1.6142 3.592-4.4616 3.0705-3.048 4.408 4.6585 4.408 5.5401 0 7.1618-0.33679 7.6166-1.5818zm-36.346-1.2637c-0.27284-0.86063 0.18495-1.221 1.2703-1 0.93327 0.19003 1.8888 0.95099 2.1234 1.691 0.27284 0.86063-0.18494 1.221-1.2703 1-0.93329-0.19003-1.8888-0.95099-2.1235-1.691zm13.598-2.1545c0.32364-0.55002 0.77734-1 1.0083-1 0.23091 0 0.41985 0.44998 0.41985 1 0 0.54999-0.45372 1-1.0083 1-0.55455 0-0.74347-0.45001-0.41985-1zm-19.518-2.559c0-0.24255 0.42844-0.44098 0.95207-0.44098 0.52365 0 0.95209 0.47656 0.95209 1.059 0 0.58246-0.42844 0.78088-0.95209 0.44098-0.52364-0.33994-0.95207-0.8165-0.95207-1.059zm-9.8367-4.8634c-0.33095-0.90582-1.2786-1.2139-2.6095-0.84836-1.4709 0.40402-1.9655 0.18222-1.67-0.74893 0.53488-1.6854 4.4972-2.0161 6.9756-0.58206 1.0473 0.60596 2.0542 1.1843 2.2375 1.2852 0.18333 0.10089 0.050949 0.66339-0.29422 1.25-0.91048 1.5473-4.0316 1.3079-4.6394-0.35586zm19.358-0.2174c0-0.35187 0.70276-1.1795 1.5617-1.8392 1.4475-1.1117 1.4475-1.2454 0-1.8289-0.91615-0.36926-1.5742-0.1257-1.592 0.58917-0.016663 0.67023-0.67622 0.3208-1.4657-0.77652-1.127-1.5664-1.6035-1.7096-2.2174-0.66614-0.61954 1.0529-0.90906 0.9812-1.3936-0.34512-0.3364-0.92075-0.37073-2.0835-0.076309-2.5838 0.29443-0.5004 0.081604-0.90976-0.47293-0.90976-0.55456 0-1.0083 0.75-1.0083 1.6667 0 2.4253-0.59151 1.3141-1.257-2.3614-0.51521-2.8454-0.2515-3.3661 2.4114-4.7614 1.6444-0.86163 3.7239-1.322 4.621-1.0229 1.7631 0.58774 3.0629 5.186 1.7136 6.0619-0.45342 0.29434-0.82439 1.2696-0.82439 2.1673 0 1.4075 0.17602 1.3792 1.2793-0.2055 0.88869-1.2765 2.0515-1.6825 3.8083-1.3298 2.5564 0.51331 3.5352-0.62174 1.3389-1.5526-0.65456-0.2774-0.25499-0.53992 0.88792-0.58331 2.5516-0.096954 3.8422 3.3508 2.0861 5.5732-1.2637 1.5992-5.5109 3.7968-6.7824 3.5093-0.39273-0.088806-0.71407 0.28851-0.71407 0.83853 0 0.54999-0.42844 1-0.95207 1-0.52365 0-0.95207-0.2879-0.95207-0.63977zm6.1885-5.3602c-0.32362-0.55002-0.99156-1-1.4843-1s-0.89587 0.44998-0.89587 1c0 0.54999 0.66794 1 1.4843 1s1.2195-0.45001 0.89587-1zm13.329-3c-0.34331-0.58344 0.62483-1 2.324-1 1.6018 0 2.9124 0.44998 2.9124 1 0 0.54999-1.0458 1-2.324 1s-2.5888-0.45001-2.9124-1zm-4.9265-1.4061c0.28253-0.77332-0.31692-2.1956-1.3321-3.1605-1.0152-0.96497-1.6646-1.9448-1.4432-2.1773 0.73831-0.77545-3.3021-4.3384-4.2339-3.7336-0.50455 0.32752-0.91736 0.16708-0.91736-0.35654s0.70842-1.2376 1.5743-1.5865c1.4185-0.57175 1.3949-0.77353-0.23802-2.0397-1.5436-1.1968-1.6151-1.6005-0.48251-2.7225 1.1038-1.0935 1.2026-1.0829 0.58154 0.062408-0.51254 0.94507-0.3316 1.2207 0.57439 0.875 0.72743-0.27762 1.2155-1.011 1.0846-1.6297-0.1309-0.61876 0.19041-1.125 0.71407-1.125 0.95863 0 1.2829 1.2314 1.0533 4-0.06842 0.82498 0.67384-0.028046 1.6495-1.8956 1.2869-2.4635 1.9866-3.0342 2.5486-2.079 0.57298 0.9738 1.01 0.68625 1.6786-1.1044 0.49715-1.3315 1.0969-1.8838 1.3328-1.2272 0.23592 0.65662 0.99106 0.96727 1.6781 0.69037 0.75838-0.30566 1.4895 0.50218 1.8608 2.0562 0.61556 2.5759 1.9171 3.3245 2.8939 1.6644 0.28972-0.49237-0.16205-1.1728-1.0039-1.5122-0.98242-0.39597-1.3498-1.3436-1.0255-2.6459 0.40851-1.6408 0.15596-1.9125-1.3201-1.4205-1.3029 0.43433-1.8253 0.12927-1.8253-1.0659 0-1.1356-0.49846-1.4735-1.5491-1.05-0.92195 0.3716-2.066-0.091141-2.8259-1.143-0.77379-1.071-1.2888-1.2749-1.3072-0.51738-0.016663 0.6875-0.48851 1.25-1.0486 1.25-0.56007 0-0.88139-1.0125-0.71407-2.25 0.21783-1.611 1.0478-2.3399 2.9225-2.5664 1.44-0.17403 2.6182 0.16347 2.6182 0.75s0.42842 1.0664 0.95207 1.0664c0.52364 0 0.95207-0.675 0.95207-1.5s0.48831-1.5 1.0851-1.5c0.59682 0 1.6329-0.78679 2.3024-1.7484 0.66946-0.96162 1.5352-1.4144 1.9239-1.0061 0.3887 0.40826 0.10239 1.5326-0.63622 2.4984-2.6335 3.4438-3.6358 5.9228-2.3946 5.9228 0.63054 0 1.2093-0.87587 1.286-1.9464 0.17531-2.4445 0.78413-3.1043 2.0851-2.2598 0.72131 0.46823 0.7173 1.251-0.013794 2.6858-0.56747 1.1137-0.78285 2.2864-0.47861 2.606 0.30424 0.31955 0.55974-0.056488 0.56776-0.83565 0.012024-1.1695 0.18506-1.155 0.99178 0.083328 0.86862 1.3333 0.94705 1.3333 0.70593 0-0.14918-0.825 0.14726-1.5 0.65878-1.5 0.51149 0 0.80298 0.78751 0.64774 1.75-0.39751 2.4645 0.16223 2.2231 4.0574-1.75 3.9677-4.0471 4.3488-4.1844 4.3488-1.5674 0 1.0629-0.74976 2.1868-1.6661 2.4974-1.5374 0.52118-4.7116 5.1924-4.5795 6.7394 0.031433 0.36818-0.8576 1.7182-1.9756 3s-2.3251 3.343-2.6824 4.5806c-0.53178 1.8418-0.28236 2.25 1.3749 2.25 3.0974 0 1.4137 1.688-2.4413 2.4476-2.4765 0.48798-3.2741 1.0801-2.886 2.1424 0.37502 1.0264-0.31705 1.6473-2.3006 2.064-1.5603 0.32776-2.837 0.98968-2.837 1.471 0 0.48123-0.68849 0.875-1.53 0.875-0.92339 0-1.3263-0.55746-1.0163-1.4061zm6.3546-7.5349c0-0.51755-0.42354-1.2159-0.94118-1.5519-0.5397-0.35034-0.69931 0.051056-0.37418 0.94098 0.63294 1.7324 1.3154 2.0494 1.3154 0.61096zm-8.6439-2.4757c0.041336-1.0542-0.1837-1.6448-0.50006-1.3125-0.31636 0.33231-0.35019 1.1948-0.075165 1.9167 0.30394 0.79773 0.52954 0.56076 0.57523-0.60419zm9.1199-4.5833c-0.32364-0.55002-1.0169-1-1.5405-1-0.52364 0-0.6873 0.44998-0.36366 1 0.32362 0.54999 1.0168 1 1.5405 1 0.52365 0 0.6873-0.45001 0.36368-1zm-4.77 0.0163c0.32889-0.55896-0.069931-1.0163-0.88629-1.0163-1.6724 0-1.9186 0.60004-0.59802 1.4573 0.48746 0.31644 1.1554 0.11798 1.4843-0.44098zm-12.44-4.5592c-0.05397-2.6145 0.29506-3.4614 1.3382-3.247 2.0191 0.41486 2.2402 3.9278 0.34254 5.4428-0.88423 0.70593-1.6077 1.2965-1.6077 1.3124 0 0.015869-0.032852-1.5628-0.073013-3.5082zm-37.058 0.5429c0.32362-0.55 0.77736-1 1.0083-1 0.23091 0 0.41983 0.45 0.41983 1s-0.4537 1-1.0082 1c-0.55455 0-0.74348-0.45-0.41985-1zm47.128-12c0-0.55 0.66794-1 1.4843-1s1.2195 0.45 0.89587 1c-0.32362 0.55-0.99156 1-1.4843 1s-0.89587-0.45-0.89587-1zm16.185-4.893c0-2.5381 2.567-3.4332 4.9077-1.7112 2.069 1.5221 0.83571 3.2144-1.621 2.2242-0.76039-0.30649-1.3825-0.12135-1.3825 0.41138s-0.42845 0.96861-0.95209 0.96861c-0.52365 0-0.95207-0.85185-0.95207-1.893zm-12.377-1.107c0-0.55 0.42842-1 0.95207-1 0.52364 0 0.95207 0.45 0.95207 1s-0.42844 1-0.95207 1c-0.52365 0-0.95207-0.45-0.95207-1zm-47.604-1c0-0.55 0.40317-1 0.89589-1 0.49275 0 1.1607 0.45 1.4843 1 0.32364 0.55-0.079514 1-0.89587 1-0.81638 0-1.4843-0.45-1.4843-1zm55.598-2.7292c0.31638-0.33229 0.5414 0.25835 0.50006 1.3125-0.045685 1.165-0.27129 1.4019-0.57521 0.60417-0.27504-0.72188-0.24121-1.5844 0.07515-1.9167zm-56.122-2.7393c-0.8654-2.1755-1.8584-3.2756-2.6637-2.951-0.97832 0.3943-1.3246-0.90431-1.4546-5.4551-0.1955-6.8433 0.99081-8.423 3.3098-4.4072 0.88354 1.53 2.3493 3.9264 3.2572 5.3253 0.90793 1.3989 1.9552 4.4364 2.3274 6.75 0.61969 3.8525 0.50525 4.2066-1.3598 4.2066-1.4239 0-2.4514-1.0433-3.4162-3.4685zm67.607-1.465c0.34515-0.58658 1.0476-1.0665 1.561-1.0665 0.51338 0 0.381 0.62961-0.2942 1.3991-1.3669 1.5578-2.2437 1.3276-1.2668-0.33261zm-26.143-2.5665c0-0.825 0.42844-1.5 0.95209-1.5 0.52364 0 0.95207 0.675 0.95207 1.5s-0.42844 1.5-0.95207 1.5c-0.52365 0-0.95209-0.675-0.95209-1.5zm4.4496-3.6181c1.1091-1.1649 2.5967-1.9141 3.3058-1.6649 0.8199 0.28816 0.24942 1.0447-1.567 2.078-3.8191 2.1726-4.1303 2.0987-1.7389-0.4131zm-13.494 1.1181c0.32364-0.55 0.77736-1 1.0083-1 0.23093 0 0.41986 0.45 0.41986 1s-0.45374 1-1.0083 1c-0.55455 0-0.74348-0.45-0.41986-1zm-83.992-1.75c-0.34386-0.96249-1.2944-2.2982-2.1123-2.9682-2.452-2.0086 0.1745-1.4296 3.671 0.80925 2.544 1.629 2.9595 2.2794 1.9042 2.981-1.9835 1.3187-2.7643 1.1334-3.4628-0.82201zm105.41-0.25c0-0.55 0.42844-1 0.95209-1 0.52364 0 0.95207 0.45 0.95207 1s-0.42844 1-0.95207 1c-0.52365 0-0.95209-0.45-0.95209-1zm-98.751-0.1219c-0.58744-0.61702-0.84152-1.742-0.56459-2.5 0.3036-0.83099-0.12624-1.3781-1.0827-1.3781-0.87238 0-1.332 0.43196-1.0213 0.95993 0.33477 0.56889-0.61194 0.52904-2.324-0.097839-1.8077-0.66188-2.8889-1.7474-2.8889-2.9006 0-1.6682 0.23679-1.7138 2.4987-0.48131 3.5161 1.916 5.2509 1.0171 4.1115-2.1304-1.2939-3.5745-1.112-4.6502 0.66507-3.9339 1.2683 0.51118 1.3493 0.35968 0.42982-0.80399-0.77235-0.97746-0.81522-1.6401-0.13467-2.0819 1.3295-0.86301 2.9025 0.23665 2.9025 2.029 0 0.79254 0.35424 1.441 0.78719 1.441 0.43296 0 0.59855-1.35 0.36798-3-0.318-2.2757-0.048332-3 1.117-3 0.84491 0 1.5362-0.68655 1.5362-1.5257 0-1.3676 0.29108-1.3676 2.809 0 1.5449 0.83913 3.4131 1.5257 4.1515 1.5257 0.73841 0 3.009 1.1946 5.0457 2.6545 2.0367 1.46 4.6276 2.7658 5.7574 2.9018 2.2327 0.26875 7.9426 4.3173 7.9426 5.6317 0 0.44656 0.82118 0.81194 1.8248 0.81194 2.2024 0 2.9829 1.9076 1.6839 4.1154-0.97772 1.6617-4.4608 1.4279-4.4608-0.29947 0-0.52292 0.85687-0.6651 1.9042-0.31598 1.0473 0.34914 1.9042 0.20694 1.9042-0.31598 0-1.3079-4.208-2.3673-4.6017-1.1585-0.45984 1.4119-3.7369 1.1974-4.2089-0.27553-0.3158-0.98549-0.72203-0.97134-1.9197 0.066879-0.83557 0.72429-3.4728 1.4541-5.8606 1.6217-2.3878 0.16766-4.942 0.82838-5.6761 1.4683-1.3646 1.1896-7.0064 0.98569-9.0274-0.32623-0.61791-0.40111-1.0621-0.35834-0.98714 0.095047 0.41324 2.4986-0.88998 3.0832-2.6806 1.2025h-8e-6zm114.6-3.9706c-1.0044-1.5061-1.512-1.7162-1.8118-0.75-0.29045 0.93623-0.38477 0.88854-0.31174-0.15759 0.1631-2.3363 3.5764-1.7625 4.4613 0.75 1.0041 2.851-0.47511 2.9507-2.3377 0.15759zm-160.93 0.5405c-0.32512-0.88992-0.16551-1.2913 0.37419-0.94098 0.51764 0.33603 0.94116 1.0344 0.94116 1.5519 0 1.4384-0.68242 1.1215-1.3154-0.61096zm148.54-1.6624c0.25429-0.43213 1.0797-0.78571 1.8343-0.78571 0.75456 0 1.3719 0.35358 1.3719 0.78571 0 0.43216-0.82542 0.78572-1.8343 0.78572-1.0088 0-1.6262-0.35356-1.3719-0.78572zm7.4905-1.7857c0.32364-0.55 0.77736-1 1.0083-1 0.23093 0 0.41985 0.45 0.41985 1s-0.45372 1-1.0083 1c-0.55454 0-0.74347-0.45-0.41985-1zm-114.73-2.059c0-0.58246 0.42845-0.7809 0.95207-0.44098 0.52365 0.33992 0.95208 0.81648 0.95208 1.059 0 0.24255-0.42843 0.44099-0.95208 0.44099-0.52362 0-0.95207-0.47656-0.95207-1.059zm116.61-1.1304c-0.29506-0.30992 0.093307-0.81734 0.86308-1.1276 0.76976-0.31026 1.8519 0.008377 2.4048 0.70807 0.75868 0.96014 0.54701 1.2367-0.86307 1.1276-1.0276-0.079514-2.1097-0.39815-2.4048-0.70807zm-6.4751-0.2119c-0.33524-0.9176 0.040436-1.2892 1.0882-1.0765 0.88013 0.17866 1.8144 0.36616 2.0763 0.41666 0.37566 0.072449-1.977 1.9852-2.5164 2.0459-0.07489 0.008423-0.36655-0.6153-0.64813-1.386zm-78.714 54.401c0-0.55002-0.42842-1-0.95207-1-0.52364 0-0.95207 0.44998-0.95207 1 0 0.54999 0.42844 1 0.95207 1 0.52365 0 0.95207-0.45001 0.95207-1zm-40.463-6.9761c1.0473-0.40863 2.7464-0.60675 3.7759-0.44025 1.0294 0.1665 2.3837-0.14356 3.0095-0.68906 0.62576-0.54544 1.3658-0.60406 1.6447-0.13025 0.50481 0.85788 8.7682 0.67248 14.658-0.32892 1.7432-0.29639 3.0942-1.1249 3.0942-1.8974 0-0.75424 0.53555-1.5996 1.1901-1.8786 0.92037-0.39224 0.89273-0.72577-0.12197-1.4715-0.72164-0.53038-1.0177-1.4646-0.65787-2.0761 0.36895-0.62698 0.031471-1.1118-0.77391-1.1118-0.78547 0-1.6889 0.44312-2.0075 0.9847-0.31868 0.54158-1.5222 0.96893-2.6744 0.94965-3.6286-0.060715-7.6215 0.69496-13.52 2.5588-3.1419 0.99277-6.4423 1.7675-7.3343 1.7216-0.89201-0.045868-1.8951 0.82098-2.2291 1.9263-0.75902 2.5118-0.44458 2.816 1.9468 1.8829zm11.901-14.024c0.78548-0.53316 0.99969-0.96936 0.47604-0.96936-0.52364 0-1.5947 0.4362-2.3802 0.96936-0.78546 0.53316-0.99966 0.96938-0.47603 0.96938 0.52364 0 1.5947-0.43622 2.3802-0.96938zm66.646-6c0-0.55-0.66794-1-1.4843-1-0.81638 0-1.2195 0.45-0.89589 1 0.32362 0.55 0.99158 1 1.4843 1 0.49274 0 0.89587-0.45 0.89587-1zm-29.038-5c0.32362-0.55 0.1347-1-0.41985-1-0.55454 0-1.0083 0.45-1.0083 1s0.18893 1 0.41985 1c0.23094 0 0.68465-0.45 1.0083-1zm23.734-14.571c2.0569-2.1605 1.875-2.694-0.40805-1.1965-1.0473 0.68698-1.9041 1.5908-1.9041 2.0085 0 1.153 0.66307 0.92014 2.3122-0.81198zm4.035-2.9726c0-0.8008-0.35702-1.456-0.79341-1.456-0.43636 0-0.7934 0.42345-0.7934 0.94098 0 0.51755 0.35704 1.1728 0.7934 1.456 0.43639 0.28328 0.79341-0.14017 0.79341-0.94098zm16.82-0.1227c0.34911-0.36665 0.63474-1.1316 0.63474-1.7 0-0.62659-0.44347-0.56754-1.1266 0.15002-0.61966 0.65083-0.90527 1.4158-0.63472 1.7 0.27055 0.28415 0.77753 0.21666 1.1266-0.15001zm-21.8-2.2308c0.26215-0.44556-0.56042-1.3064-1.828-1.913-1.864-0.89204-2.2083-0.83919-1.8007 0.27644 0.61563 1.685 2.9742 2.7488 3.6287 1.6366zm0.5364-4.0435c0-0.51752-0.42844-1.2191-0.95207-1.559-0.52364-0.33992-0.95207 0.083527-0.95207 0.94098 0 0.85747 0.42844 1.559 0.95207 1.559 0.52364 0 0.95207-0.42343 0.95207-0.94099zm39.418-1.7946c1.1002-1.1556 0.55397-2.4723-0.79935-1.9268-0.79497 0.3204-1.5467-0.15862-1.7937-1.143-0.31854-1.2694-0.45296-1.1569-0.53569 0.44844-0.10721 2.0803 1.9794 3.8286 3.1288 2.6214zm-2.2871-7.0978c0-0.64166 0.64265-1.1667 1.4281-1.1667 0.78546 0 1.4281-0.77499 1.4281-1.7222 0-1.4862-0.28636-1.4214-2.0893 0.47221-1.1491 1.2069-1.7918 2.5069-1.4281 2.8889 0.36363 0.38193 0.66116 0.16943 0.66116-0.47223zm5.7125-5.0486c0-0.54999-0.42845-1.2781-0.95209-1.618-0.52364-0.33992-0.95207-0.16803-0.95207 0.38197s0.42844 1.2781 0.95207 1.618c0.52364 0.33992 0.95209 0.16803 0.95209-0.38197zm0-5.118c0-1.1-0.42845-2-0.95209-2s-0.90134 0.33751-0.83934 0.75c0.283 1.8826-0.21547 2.6281-0.9469 1.4162-0.64815-1.0739-0.91776-1.0252-1.3837 0.25-0.43166 1.1815 0.018356 1.5838 1.7717 1.5838 1.7156 0 2.3503-0.5401 2.3503-2zm-147.1-12.873c2.3719-0.52821 2.9068-1.1865 3.1546-3.8817 0.21312-2.3186-0.09771-3.2456-1.0882-3.2456-0.76262 0-1.6357 0.68175-1.9401 1.515-0.30443 0.83325-1.6274 1.9438-2.9399 2.468-1.5897 0.63483-2.1996 1.4644-1.8267 2.485 0.30784 0.84261 0.8352 1.4788 1.1719 1.4137 0.33672-0.065079 1.8975-0.40456 3.4684-0.75438zm178.67-6.6275c0.2619-0.27508 1.9018-0.67448 3.6441-0.88756 1.9058-0.23308 3.8468-1.3286 4.8719-2.7499 2.0354-2.8219 0.71683-3.6588-2.3927-1.5188-1.2241 0.84241-3.6447 1.9179-5.3792 2.39-3.181 0.86577-5.0691 3.2664-2.5691 3.2664 0.74184 0 1.5631-0.22505 1.825-0.50014zm-19.438-2.7899c-1.44-1.438-2.6209-2.9735-2.6242-3.4122-0.010376-1.3748-5.7046-4.3619-5.721-3.0012-0.009003 0.74356-0.37286 0.63025-0.95207-0.29651-0.83334-1.3333-1.0417-1.3333-1.875 0-1.463 2.3408-1.138 3.2803 0.9375 2.7102 1.0473-0.28766 1.9042-0.12369 1.9042 0.36433 0 0.48804-1.0711 1.1697-2.3802 1.5148-1.3091 0.34511-2.3802 0.91618-2.3802 1.2691 0 0.63953 0.87671 0.80383 8.0927 1.5167 2.0946 0.20691 4.6652 0.73019 5.7125 1.1628 1.4715 0.60786 1.3092 0.19252-0.71407-1.8279zm-100.7-1.3256c-0.027412-3.5418-1.3799-4.7356-3.6661-3.236-1.6313 1.07-2.4045 1.0882-3.923 0.092178-1.0402-0.6823-2.9207-1.2406-4.1789-1.2406s-3.2991-0.89085-4.5353-1.9797c-1.8583-1.6368-2.0111-2.1431-0.88211-2.9229 1.0257-0.70851 0.59479-1.0246-1.7318-1.2703l-3.0973-0.3271 2.1487-2.4099 2.1487-2.4099 1.3654 2.1599c1.5774 2.4952 7.2968 2.9962 10.052 0.88042 1.5728-1.208 1.5564-1.412-0.29408-3.653-1.078-1.3055-1.96-2.6465-1.96-2.98 0-0.33354-0.77982-1.118-1.7329-1.7432-2.0896-1.3706-10.93 0.05191-13.899 2.2367-2.7879 2.051-5.4122 1.8633-4.6292-0.33104 0.54682-1.5325 0.42475-1.5794-0.98196-0.37756-0.8835 0.75485-1.5998 2.3298-1.5918 3.5 0.012009 1.7528 0.18211 1.8633 0.96559 0.62756 0.67232-1.0604 0.77995-0.30753 0.36731 2.5691-0.44142 3.0773-0.096626 5.0236 1.4146 7.9852 1.7314 3.3929 1.9983 3.5908 1.9983 1.4809 0-1.894 0.25389-2.1685 1.1425-1.2352 0.62836 0.66 1.9137 1.2 2.8562 1.2 0.94255 0 1.7137 0.49878 1.7137 1.1084 0 0.69254-0.92294 0.86508-2.46 0.45992-1.4105-0.37184-2.2293-0.25655-1.9194 0.27025 0.29733 0.50531 3.2252 1.1946 6.5063 1.5317 19.945 2.0494 18.82 2.0486 18.804 0.014053zm-23.787-6.2774c0-1.4347 2.435-2.01 3.8946-0.92014 1.0699 0.79877 1.0103 0.8902-0.29385 0.45116-0.8996-0.30287-1.8889-0.12032-2.1984 0.40566-0.70734 1.2021-1.4024 1.2335-1.4024 0.063324zm12.377-11.107c0-0.55 0.42845-1 0.95208-1 0.52364 0 0.95208 0.45 0.95208 1s-0.42844 1-0.95208 1c-0.52363 0-0.95208-0.45-0.95208-1zm-39.853 17.91c0.5648-1.7498 0.35741-7.2416-0.3205-8.4871-0.27646-0.50784-0.77708-2.1309-1.1125-3.6067-0.33543-1.4758-1.4658-2.9687-2.5118-3.3174-1.0461-0.34872-1.902-1.2787-1.902-2.0666 0-0.78793-0.42843-1.4326-0.95209-1.4326-0.52363 0-0.95207-0.675-0.95207-1.5s-0.32132-1.4044-0.71406-1.2876c-0.39273 0.11685-1.7851-0.40682-3.0943-1.1637-2.1846-1.2631-2.2728-1.2395-1.0735 0.28755 0.71865 0.91504 0.87823 1.6637 0.35459 1.6637-0.52365 0-1.5022-0.6963-2.1747-1.5473-0.97656-1.2359-1.3803-1.2862-2.0062-0.25-1.0846 1.7959-1.0021 2.7973 0.23045 2.7973 0.57373 0 2.2287 0.8867 3.6778 1.9705s2.9763 1.6462 3.3939 1.25c0.41757-0.39626 0.50162-0.24391 0.18675 0.33852-0.31485 0.58244 0.68756 2.3081 2.2276 3.8348s2.8 3.2142 2.8 3.75c0 0.53584 0.38847 0.72208 0.8633 0.41386 0.47481-0.30823 0.63905 0.34021 0.36499 1.441-0.28974 1.1637-0.029823 2.0014 0.62101 2.0014 0.61562 0 0.87897 0.40845 0.58524 0.90765-0.29375 0.49921-0.17703 1.9214 0.25935 3.1605 0.55217 1.5678 0.93188 1.8239 1.2487 0.84235zm61.275-2.4326l4.7604-2.4596-4.2844 0.0062c-2.8869 0.00415-3.8458 0.29773-2.9399 0.90007 1.0398 0.69133 0.84094 0.97112-0.8775 1.2347-1.2221 0.18744-2.3983 0.90329-2.6139 1.5908-0.55298 1.7637 0.52544 1.5333 5.9553-1.2721zm-42.956 1.714c0.8292-1.4092-1.3288-1.9308-4.6475-1.1234-1.5709 0.3822-2.2136 0.7543-1.4281 0.82687 0.78549 0.072586 2.3438 0.39003 3.4629 0.70543 1.1191 0.31541 2.2948 0.13142 2.6127-0.40886zm-26.905-3.1476c1.4374-1.6649 1.3591-1.9975-1.1293-4.794-2.4051-2.7029-3.039-2.928-6.305-2.2382-6.3621 1.3437-9.7461 3.0256-9.1839 4.5646 0.68332 1.8704 2.8225 1.8238 3.5168-0.07663 0.7701-2.1078 3.464-1.8745 3.464 0.3 0 0.99 0.51414 2.34 1.1425 3 1.6743 1.7585 6.7109 1.3105 8.4948-0.75571zm-6.7811-4.1033c0-0.58246 0.42846-0.7809 0.95208-0.44098 0.52365 0.33992 0.95208 0.81648 0.95208 1.059 0 0.24255-0.42843 0.44099-0.95208 0.44099-0.52363 0-0.95208-0.47656-0.95208-1.059zm30.853-0.9494c-0.28822-4.3727 2.4245-14.585 4.4264-16.664 3.8496-3.9973 4.9499-4.4841 10.221-4.5216 6.7001-0.047684 8.7676-0.56946 8.7676-2.2126 0-1.0704-3.4132-3.4491-5.9505-4.1468-0.39273-0.108-0.82115-0.28134-0.9521-0.38521-0.1309-0.10385-1.6415-0.33369-3.357-0.51076-2.3256-0.24005-3.3734 0.17746-4.1194 1.6414-0.5634 1.1057-1.5923 1.7248-2.3555 1.4172-0.80763-0.32553-1.3551 0.070984-1.3551 0.98146 0 0.8402-0.42844 1.2495-0.95209 0.90959-0.52363-0.33992-0.95207-0.066483-0.95207 0.60765s-0.28908 0.92206-0.64239 0.55096c-0.35331-0.37111-1.4216 0.56639-2.3739 2.0833-0.95233 1.5169-1.7343 2.425-1.7378 2.0178-0.003448-0.40712-0.86314 0.03038-1.9104 0.97224-1.0473 0.94185-1.9042 2.2874-1.9042 2.9902 0 0.70277-0.69192 1.2778-1.5376 1.2778-1.405 0-1.4016 0.21805 0.039558 2.5283 0.86745 1.3905 1.3194 2.9664 1.0043 3.5019-0.31509 0.53549 0.52397 1.4116 1.8646 1.947 1.3406 0.53536 2.4375 1.4187 2.4375 1.963 0 1.5388-3.3599 3.0568-6.84 3.0903-4.2773 0.041199-1.6857 1.5108 4.0353 2.2884 4.3144 0.58635 4.3349 0.57483 4.1436-2.3272zm143.72-2.8081c0.43782-0.72409 0.55934-1.5651 0.27002-1.869-0.83404-0.87602 1.9341-3.3144 3.7627-3.3144 0.91255 0 2.4016 0.70573 3.3091 1.5683 1.3959 1.3269 1.9636 1.3653 3.6874 0.25 1.8137-1.1735 2.2365-1.0436 3.8481 1.1817 2.0686 2.8562 3.3723 2.1354 4.6434-2.5674 0.61192-2.2639 0.30643-3.8406-1.3398-6.9149-1.7347-3.2395-3.0844-4.3263-7.2358-5.8259-2.8068-1.014-6.1244-2.8219-7.3724-4.0176l-2.269-2.1741 0.4876 4.7658c0.54585 5.3349-0.63423 7.382-1.5334 2.6599-0.51851-2.723-2.5644-5.9257-3.7853-5.9257-0.2532 0-0.74071 1.7429-1.0834 3.8731-0.43102 2.6796-0.12218 5.0678 1.0022 7.75 0.89386 2.1323 1.8923 5.6769 2.2188 7.8769 0.39784 2.6809 0.85611 3.5659 1.3897 2.6835zm-174.32-2.3075c-0.64582-0.68343-1.4141-0.99068-1.7072-0.68278-0.29314 0.30789 0.23527 0.86705 1.1742 1.2426 1.3569 0.54268 1.4663 0.42783 0.53297-0.5598zm67.747-0.7524c0.31886-0.5419 0.14433-1.2679-0.38786-1.6134-0.53217-0.34546-0.96761-1.2766-0.96761-2.0691 0-1.8294 3.1434-1.8526 6.4738-0.047745 3.782 2.0495 16.164 1.5875 19.233-0.71767l2.3795-1.7871-2.3802 0.5732c-4.8526 1.1685-9.0438 1.2989-11.391 0.35449l-2.4142-0.9714 3.2036-1.4223c1.762-0.78229 4.6189-1.4224 6.3487-1.4224 3.4678 0 6.1571-0.83409 6.1571-1.9097 0-0.90535-9.6058 0.21379-11.29 1.3153-0.71106 0.46516-4.8093 0.77298-9.1072 0.68404-4.2979-0.088913-8.6782 0.19202-9.7339 0.62433-1.8725 0.76675-1.8557 0.89137 0.6883 5.0904 1.4343 2.3674 2.8687 3.861 3.1876 3.3191zm-27.404-8.1636c0.52717-0.55371 1.949-1.2071 3.1596-1.452 3.0176-0.61038 3.6303-1.4551 0.86347-1.1904-2.6495 0.25346-6.2779 2.2876-5.5131 3.0908 0.29234 0.30708 0.96289 0.10529 1.4901-0.44841zm-45.541-0.5815c-1.4238-1.4955-1.7154-1.4955-3.7481 0-2.1924 1.6129-2.1842 1.6216 1.5439 1.6216 3.4566 0 3.628-0.12614 2.2042-1.6216zm-7.0468-3.5984c2.1848-2.3441 3.3276-2.8499 5.4375-2.4067 1.4692 0.30864 2.9159 0.14555 3.2148-0.36241 0.29888-0.50796 1.1547-0.6772 1.9018-0.37608s2.9827 0.017029 4.9679-0.6313c6.8176-2.2264 11.702-4.276 11.702-4.9103 0-0.34927-1.9326-0.62564-4.2946-0.61414-2.9411 0.014297-4.1566 0.39882-3.8568 1.22 0.47834 1.31-1.9162 0.70837-4.0279-1.0119-0.83234-0.67807-1.5726-0.64299-2.288 0.10843-0.72058 0.75685-1.6179 0.79585-2.8159 0.12244-2.0907-1.1752-2.2641-0.12149-0.4321 2.6257 1.2648 1.8966 1.1536 1.9714-2.3981 1.6157-2.1729-0.21765-4.3505 0.17274-5.2274 0.93716-0.82668 0.72063-2.3993 1.4539-3.4946 1.6294-2.445 0.39192-2.3955 0.30821-1.714 2.898 0.5411 2.056 0.64746 2.029 3.3252-0.84392zm11.991-5.78c0-0.55 0.42846-1 0.95208-1 0.52365 0 0.95208 0.45 0.95208 1s-0.42843 1-0.95208 1c-0.52362 0-0.95208-0.45-0.95208-1zm-17.656 8.0716c0.30046-0.51062 0.73988-5.3481 0.97652-10.75 1.2556-28.665 1.4106-30.779 2.8233-38.493 0.42006-2.294 0.32703-2.8614-0.29938-1.826-1.7036 2.8161-3.1665 14.474-3.5134 27.998-0.44514 17.356-1.0399 21.096-3.461 21.761-1.4439 0.39659-1.5859 0.71344-0.61078 1.3627 1.68 1.1186 3.4089 1.0966 4.0847-0.051819zm144.28-2.2859c11.042-5.0055 20.452-10.256 25.361-14.15 4.2806-3.3961 6.7063-4.6358 9.0712-4.6358 2.0498 0 3.8231-0.72996 4.8584-2 0.89671-1.1 2.2772-2 3.0678-2 0.79059 0 1.4374-0.36713 1.4374-0.81585 0-0.44873 1.6581-1.7946 3.6846-2.9909s4.2472-2.887 4.9347-3.7572c0.68759-0.87018 2.8152-2.4208 4.7281-3.4458 3.0742-1.6473 3.4281-2.2206 3.0482-4.9392-0.23636-1.6916-0.7459-3.2808-1.1323-3.5316-0.38638-0.25081-0.52644-2.3054-0.31125-4.5657 0.21521-2.2603-0.098816-4.7299-0.6978-5.4879-0.59897-0.75807-0.81267-1.848-0.47487-2.4221 0.33781-0.57409 0.10802-1.0438-0.51065-1.0438-0.83823 0-0.82284-0.38219 0.060394-1.5 0.87721-1.1102 0.90965-1.8487 0.12483-2.842-0.58322-0.7381-0.85605-1.5566-0.60628-1.819 0.24976-0.26233-0.21799-3.5959-1.0394-7.408-0.82144-3.8121-1.4602-7.9763-1.4194-9.2539 0.082779-2.5932-3.6254-11.325-7.7194-18.177-2.6737-4.4749-15.634-19-16.954-19-0.38002 0-2.1414-1.3422-3.9142-2.9827-4.2098-3.8956-18.315-11.126-25.121-12.878-11.401-2.934-22.299-2.9137-17.287 0.03219 1.2266 0.72097 1.573 1.7136 1.1767 3.3721-0.39062 1.6348-0.052704 2.6519 1.11 3.341 1.3389 0.79346 1.4348 1.2419 0.48152 2.2529-0.65456 0.69424-1.2398 2.4098-1.3005 3.8123-0.07341 1.6948-0.25645 1.9631-0.54585 0.8-0.45682-1.8361-3.152-2.4774-3.152-0.75 0 0.55 0.47429 1 1.0539 1 0.57967 0 0.82341 0.63101 0.54166 1.4022-0.76721 2.0999 0.34598 2.7013 1.9268 1.041 0.76535-0.80388 1.7805-1.2091 2.256-0.90044 0.4794 0.31121 0.57162-0.24023 0.20705-1.2381-0.6318-1.7294-0.55667-1.7299 1.9359-0.01453 1.7737 1.2207 3.0808 1.4982 4.1358 0.87805 0.84836-0.49865 2.2994-0.69875 3.2246-0.44463 1.0828 0.2974 1.8253-0.19455 2.084-1.3808 0.3015-1.3824 1.9329 7.4932 1.9589 10.657 0.002258 0.27499 0.6886 1.0257 1.5252 1.6682 0.83661 0.64252 1.1683 1.5388 0.73714 1.9917-0.43118 0.45289-1.2615-0.072811-1.8452-1.1682-0.58365-1.0954-0.87285-2.1713-0.64264-2.3909 0.23018-0.21957-0.43834-0.71539-1.4856-1.1018-1.5005-0.55368-2.1457-0.10046-3.0438 2.1381-0.74956 1.8683-1.622 2.6464-2.5488 2.2728-1.0482-0.42248-1.2765-0.0355-0.89142 1.5111 0.55656 2.2354 0.31926 2.4095-2.0068 1.472-1.7709-0.71376-2.0324-5.042-0.34045-5.6344 0.64105-0.22443 0.2959-0.64693-0.767-0.93888-1.6686-0.45832-1.8778-0.13906-1.5317 2.3376 0.32404 2.3189 0.10617 2.7497-1.1372 2.2486-2.0701-0.83435-1.969 1.2413 0.12022 2.4694 0.92732 0.54508 1.2895 1.3383 0.82173 1.7997-0.46005 0.45376-1.0277 0.26251-1.2615-0.42499-0.23376-0.6875-1.0508-1.25-1.8156-1.25-0.76947 0-1.2656-0.73525-1.1108-1.6463 0.15387-0.90545-0.2558-1.843-0.91036-2.0833-1.8653-0.68506-1.4077 3.2128 0.60146 5.1226 0.98535 0.93662 3.3273 2.1483 5.2043 2.6927 1.877 0.54435 4.0638 1.6735 4.8594 2.5092 1.2941 1.3593 1.2484 1.743-0.43387 3.6395-2.0986 2.3659-3.8236 1.6994-1.9006-0.73436 0.67288-0.85159 1.0095-1.7731 0.74799-2.0477-0.79509-0.83513-3.631 0.69311-3.0665 1.6525 0.2897 0.49235 0.073044 0.89521-0.48152 0.89521-0.55455 0-1.0083-0.50246-1.0083-1.1166 0-0.64757-0.98579-0.91864-2.347-0.64534-1.2908 0.25919-2.5423-0.02586-2.7811-0.63341-0.2792-0.71056-0.46089-0.65871-0.50925 0.14534-0.095322 1.5853-3.5986 1.6476-4.0983 0.072941-0.2093-0.65947-0.89333-0.83965-1.5556-0.40976-0.8533 0.55391-0.47318 1.407 1.3668 3.0677 1.5848 1.4303 2.2714 2.7719 1.8153 3.547-0.45277 0.76948 0.097244 1.9048 1.4371 2.9663 1.1938 0.94583 1.7643 1.9835 1.2676 2.3058-0.49664 0.32238-2.1211-0.51323-3.6099-1.8569s-3.0687-2.4431-3.5109-2.4431-0.804-0.64571-0.804-1.4349c0-3.1871-1.8512-6.5237-3.2963-5.9412-0.79922 0.32213-1.2161 0.98853-0.92638 1.4809 0.2897 0.49236 0.098312 0.89521-0.42532 0.89521-0.52364 0-1.2169-0.45-1.5405-1-0.32362-0.54999-0.13469-1 0.41986-1 2.1848 0 0.83887-1.8637-2.086-2.8884-2.7532-0.96459-2.9001-0.92759-1.3328 0.33564 0.96881 0.78084 1.4907 1.8799 1.1598 2.4423-0.73674 1.252 3.7683 4.5213 5.0679 3.6777 0.51775-0.33609 1.0655 0.84837 1.232 2.6638 0.24792 2.7043 0.6654 3.2286 2.4168 3.0354 1.2973-0.1431 2.5084 0.53455 3.1278 1.75 0.55586 1.091 1.8524 1.9835 2.8813 1.9835 2.2424 0 2.3495 0.63992 0.44254 2.6429-0.78546 0.82501-1.4281 1.95-1.4281 2.5s0.67326 0.29285 1.4961-0.57143c0.82286-0.86429 2.154-1.5714 2.9581-1.5714 0.99928 0 1.2612-0.55385 0.82767-1.75-0.51114-1.4102-0.39972-1.5054 0.57379-0.49035 0.97273 1.0142 1.4409 0.81944 2.4029-1 0.68321-1.2921 1.2092-1.6511 1.2285-0.83839 0.018555 0.78169-0.71602 2.304-1.6324 3.3829-1.6081 1.8933-1.5913 1.9372 0.48227 1.2593 1.6864-0.55134 2.3576-0.20363 3.1211 1.6171l0.9727 2.3195-0.4334-2.329c-0.30232-1.6245-0.058258-2.1778 0.8069-1.8291 0.73531 0.29636 1.1916-0.18043 1.1206-1.171-0.097076-1.3554 0.77918-1.6706 4.6407-1.6692 2.6182 9.69e-4 5.1222-0.44903 5.5643-1 0.46788-0.58307 0.57985-0.27034 0.2679 0.74823-0.72977 2.3828 0.35785 5.3655 1.3448 3.6881 0.39792-0.67626 1.4366-0.94217 2.3081-0.59091 0.90097 0.36313 1.2893 1.1404 0.90013 1.8018-0.49591 0.84281 0.30435 0.9946 2.9059 0.55118 3.4424-0.58673 7.0139 1.1395 5.5465 2.6808-0.32414 0.34045-0.064255 0.61903 0.57758 0.61903 0.64183 0 0.89784 0.45734 0.56894 1.0163-0.32892 0.55897-0.96726 0.77664-1.4185 0.48369-0.45128-0.29294-1.0713-0.10638-1.3779 0.4146-0.30655 0.52096-0.16216 1.2037 0.32088 1.5173 0.48303 0.31355 0.67444 1.3886 0.42538 2.389-0.24908 1.0004 0.21957 2.405 1.0415 3.1215 0.82187 0.71642 1.4943 0.92235 1.4943 0.45763 0-0.46471 0.66956 0.15907 1.4879 1.3862 1.3524 2.028 1.3483 2.3778-0.045319 3.8416-1.7677 1.8566-1.6616 1.937-3.3658-2.5498-0.71489-1.8822-1.4672-2.8947-1.6718-2.25-0.40433 1.274-2.1826 1.6467-2.0145 0.42214 0.20895-1.5219-1.3043-5.25-2.131-5.25-0.4696 0-0.20541 1.63 0.58708 3.6221 1.9271 4.8443 1.8157 6.3779-0.46326 6.3779-1.0579 0-1.9042 0.66667-1.9042 1.5 0 2.4598-2.8485 1.731-2.9314-0.75-0.047256-1.4146-0.25569-1.6931-0.56139-0.75-0.26743 0.825-1.0905 2.918-1.829 4.6511-1.5191 3.5648-1.6562 4.4586-0.62874 4.0989 0.39273-0.1375 0.82117 0.2 0.95209 0.75 0.1309 0.55-0.29753 1-0.95209 1-0.65454 0-1.8328 1.4528-2.6182 3.2284-0.80244 1.814-2.1581 3.2378-3.0942 3.25-0.91638 0.011894-1.6661 0.47163-1.6661 1.0216 0 0.55-0.68503 1-1.5223 1-2.8134 0-8.1676 3.2957-9.1926 5.6584-1.1208 2.5837-2.6143 3.1264-2.6143 0.95007 0-0.76538-1.0711-1.674-2.3802-2.019-1.3141-0.34641-2.3802-1.3534-2.3802-2.2482 0-1.9467 2.6894-4.2653 4.9984-4.3094 0.9164-0.017487 1.6662-0.73336 1.6662-1.5908 0-0.85746 0.45119-1.2661 1.0026-0.90818 0.55144 0.35796 1.8237-0.34357 2.8273-1.5589 1.3765-1.667 2.5612-2.0962 4.8235-1.7475l2.9988 0.4623-2.2558-1.8568c-2.2054-1.8153-2.2148-1.8898-0.42114-3.334 1.0091-0.81244 2.0801-1.1952 2.3802-0.85059 0.30008 0.34461 0.01001 0.82747-0.64453 1.073-0.65457 0.24554-1.1901 0.93393-1.1901 1.5298 0 0.59583 0.27058 0.79917 0.60123 0.45185 0.33067-0.34732 1.4018-0.18148 2.3802 0.36852 2.1735 1.2218 2.2133 0.71239 0.25473-3.2657-1.0766-2.1866-1.7444-2.7218-2.2738-1.8222-0.41222 0.70055-1.227 0.96378-1.8106 0.58493-1.5132-0.98227 0.60677-4.8787 2.2861-4.2019 0.82642 0.33309 1.2434-0.15443 1.1574-1.3532-0.073914-1.0306-0.47388-1.6535-0.88882-1.3841-1.1711 0.76024-0.88843-2.0876 0.33479-3.3723 0.81757-0.85874 0.59656-1.0087-0.8862-0.60147-1.3558 0.3724-1.7909 1.0606-1.387 2.1941 0.49152 1.3795 0.34683 1.4455-0.87856 0.40054-0.80682-0.688-2.5673-1.1553-3.9122-1.0384-1.8892 0.16422-2.2654 0.56564-1.6542 1.7651 0.84085 1.6502-1.3831 5.8919-2.4832 4.7363-0.33608-0.353-1.4177-0.18838-2.4036 0.36582-1.3319 0.74869-1.7279 0.68151-1.541-0.26145 0.13838-0.69799-0.71237-1.4236-1.8906-1.6124-1.1782-0.18881-2.1422-0.76199-2.1422-1.2737 0-0.51174-0.96399-0.96091-2.1422-0.99813l-2.1422-0.0677 2.1422-1.0851c2.5371-1.2852 2.7118-2.3453 0.5918-3.5914-1.1693-0.68734-1.2602-1.0997-0.36958-1.6778 0.6564-0.4261 1.506-0.21384 1.913 0.47796 0.54445 0.92528 1.1887 0.96594 2.5118 0.15852 1.4896-0.90904 1.5271-1.0909 0.22996-1.1163-0.85226-0.016731-2.0829-0.70541-2.7348-1.5304-0.65187-0.825-1.6684-1.4931-2.2588-1.4847-0.73084 0.010422-0.70575 0.2608 0.078613 0.78436 0.82338 0.54961 0.58025 1.1442-0.8521 2.0837-1.7582 1.1533-1.9302 1.112-1.4011-0.3363 0.38704-1.0594 0.2278-1.4073-0.44444-0.9709-0.57619 0.37403-1.4049 0.072929-1.8415-0.6691-0.43662-0.74204-1.1261-1.0002-1.5321-0.57375-0.40605 0.42648-0.16023 1.1506 0.54623 1.6092 0.74548 0.48392 0.97182 1.3652 0.53941 2.1001-0.45622 0.77529-0.36076 1.0168 0.24617 0.62281 0.54521-0.35392 1.5754 0.1108 2.2893 1.0327 1.1205 1.4471 1.0905 1.5948-0.21953 1.0803-1.1877-0.46641-1.4538-0.01812-1.2243 2.0628 0.16126 1.4623 0.058395 1.8463-0.22859 0.85336-0.63315-2.1905-2.7954-1.6413-2.6098 0.66296 0.20004 2.4849-1.3684 1.9671-1.8406-0.60763-0.28912-1.5767-0.47389-1.2027-0.61742 1.25-0.11266 1.925-0.4209 2.9375-0.68503 2.25-0.54134-1.4091-5.0819-1.7352-5.0819-0.36501 0 1.7988-4.7453 4.2233-6.3825 3.2609-1.0447-0.61405-2.8932-0.43183-5.4536 0.53755-2.1303 0.80655-7.1987 1.6231-11.263 1.8146-9.4114 0.44343-13.08 1.3007-13.08 3.0566 0 1.0877 0.54299 1.179 2.4597 0.41355 1.3528-0.54024 5.162-1.0916 8.4649-1.2252 4.7863-0.19369 6.4128 0.14365 8.0132 1.662 3.2003 3.0362 2.4378 3.82-2.9905 3.0738-8.0331-1.1042-10.653-0.79131-17.048 2.036-3.3219 1.4685-6.7808 2.7693-7.6865 2.8906-0.90568 0.12128-1.9116 0.49869-2.2352 0.83866-0.32368 0.33997-1.1893 0.376-1.9236 0.080048-0.74965-0.30216-1.335 0.06974-1.335 0.84814 0 0.76243-0.85685 2.0349-1.9042 2.8278-1.0473 0.79284-1.9042 2.0376-1.9042 2.7662 0 1.8147-4.5679 6.4768-5.6547 5.7713-1.285-0.83417-2.3443 1.4609-1.2196 2.6422 1.5826 1.6623 7.8263-2.546 7.8263-5.275 0-0.68095 0.28291-0.94096 0.62866-0.57779 0.34578 0.36317 1.2575-0.28266 2.0261-1.4352 0.83748-1.2558 1.6428-1.6785 2.0098-1.0548 0.93501 1.589 6.7597-1.6756 6.1189-3.4295-0.28283-0.77412-0.039955-1.4638 0.5397-1.5325 1.861-0.22072 2.4452-0.42486 4.3862-1.5326 2.0309-1.159 14.432-2.3897 16.423-1.6299 2.2172 0.84608 1.2054 2.1938-2.1422 2.8534-3.4202 0.67394-4.1981 1.7539-2.1984 3.052 0.62366 0.40484 1.302 0.2064 1.5075-0.44099 0.6331-1.9949 2.8347-1.3015 3.4066 1.073 0.29855 1.2395 1.8688 2.8617 3.4964 3.6121 1.9032 0.87744 2.7691 1.8694 2.4336 2.7878-0.75246 2.0596 1.7936 2.7323 5.3763 1.4205 2.6482-0.96965 3.2864-0.8758 4.4055 0.6478 0.79362 1.0805 1.4661 1.347 1.7087 0.67706 0.22-0.60756 1.4562-0.8926 2.747-0.63342 1.724 0.34615 2.347 1.1132 2.347 2.8898 0 2.0996 0.24837 2.279 1.8827 1.3603 1.536-0.86343 1.7803-0.77784 1.3263 0.46482-0.30606 0.83773-0.082199 1.5231 0.49747 1.5231s1.0539-0.675 1.0539-1.5c0-2.1727 1.4338-1.8411 3.2426 0.75l1.5706 2.25-0.6044-2.3752c-0.40886-1.6066-0.26335-2.1538 0.44963-1.691 1.3732 0.89143 1.3434 2.8623-0.065781 4.3424-0.81775 0.85892-1.4598 0.87984-2.3802 0.077545-0.91844-0.80059-1.2604-0.79414-1.2604 0.023811 0 0.61734-0.74976 1.1368-1.6661 1.1542-1.5037 0.028717-1.485 0.17566 0.19177 1.5075 1.1676 0.92747 2.9362 1.2672 4.7604 0.9145 1.5964-0.30867 3.8665-0.63283 5.0447-0.72034 1.1782-0.087494 2.1422-0.483 2.1422-0.8789 0-0.39589 0.96399-1.0358 2.1422-1.422 3.7604-1.2326 4.6414-3.9052 1.5658-4.7499-1.1072-0.30411-1.8164-1.1397-1.5842-1.8666 0.40007-1.2528 0.90511-1.4326 4.7787-1.7007 0.99481-0.068871 1.6661-0.9212 1.6661-2.1154 0-1.1 0.56187-2 1.2486-2 0.68672 0 2.2084-0.93921 3.3815-2.0871 1.2155-1.1894 2.7754-1.8282 3.6265-1.4851 1.1319 0.45623 1.3722 0.11411 0.99197-1.4129-0.37117-1.4908-0.037308-2.0149 1.2835-2.0149 1.1956 0 1.6042-0.49534 1.2371-1.5-0.30142-0.825-0.10263-1.5 0.44176-1.5s1.2618 0.9 1.5942 2c0.63298 2.0948 2.8925 2.5786 5.1204 1.0965 1.5151-1.0079 0.63008-3.0965-1.3121-3.0965-0.72365 0-1.534-0.37083-1.8006-0.82406-0.26669-0.45324 0.41191-0.79073 1.508-0.75 1.446 0.053741 2.3179-0.88641 3.177-3.4259 0.95209-2.8143 1.318-3.1583 1.8678-1.7557 0.37605 0.95934 1.0743 1.4907 1.5516 1.1809 0.47731-0.30985 0.62137-0.98226 0.32008-1.4943-0.30127-0.51199 0.12018-0.9309 0.93655-0.9309 2.259 0 1.7728 2.6165-0.89589 4.8213-1.3091 1.0816-2.3802 2.309-2.3802 2.7276 0 0.41858 0.74976 0.084717 1.6661-0.74192 0.91638-0.82665 2.4159-1.7823 3.3323-2.1236 0.91638-0.34133 1.6661-1.2956 1.6661-2.1206 0-0.92248 0.54984-1.2784 1.4281-0.92439 0.94218 0.37974 1.4537-0.056252 1.5033-1.2814 0.052551-1.2985 0.36336-1.028 1.0334 0.89925 0.52702 1.5159 1.3501 2.5019 1.829 2.191 1.3509-0.87694 1.0263 0.53229-0.48936 2.1242-1.765 1.8539-2.2159 1.8011-2.744-0.32143-0.32767-1.3169-0.46275-1.1932-0.54585 0.5-0.060745 1.2375-0.646 2.1375-1.3006 2-0.75549-0.15871-1.1236 0.76256-1.0079 2.5228 0.11305 1.7203-0.19752 2.5263-0.81819 2.1234-0.96114-0.62392-5.059 3.5617-5.8248 5.9495-0.26691 0.83229-0.80244 0.77959-1.9196-0.18887-1.316-1.1409-1.9488-1.0494-4.2012 0.60741-1.4585 1.0728-3.2323 1.7365-3.9418 1.4749-0.92419-0.34082-1.1154 0.10211-0.67427 1.5619 0.45522 1.5064 0.10892 2.2066-1.3282 2.6857-2.0559 0.68536-2.7709 3.6903-0.77646 3.2633 0.64212-0.1375 1.3146 0.7625 1.4943 2 0.39793 2.7394 1.5793 2.8077 6.4421 0.37262 2.062-1.0326 6.6792-2.1977 10.26-2.5891 6.331-0.69205 6.4618-0.66082 4.7223 1.1274-0.98402 1.0115-6.0563 4.082-11.272 6.8232-12.317 6.4739-12.038 6.2483-10.639 8.6012 1.2898 2.1694 1.2589 2.1645 4.4887 0.70042v1.5e-5zm-25.706-16.786c0-1.1 0.16428-2 0.36502-2s0.58905 0.9 0.86293 2 0.10962 2-0.36499 2c-0.47462 0-0.86296-0.89999-0.86296-2zm1.9042-1.559c0-0.85746 0.42844-1.2809 0.95207-0.94099 0.52364 0.33992 0.95207 1.0415 0.95207 1.559 0 0.51754-0.42844 0.94098-0.95207 0.94098-0.52364 0-0.95207-0.70155-0.95207-1.559zm-9.0448-3.441c0.32364-0.54999 1.0169-1 1.5405-1 0.52364 0 0.68729 0.45001 0.36366 1-0.32364 0.55001-1.0168 1-1.5405 1-0.52364 0-0.6873-0.44999-0.36368-1zm4.7059-4.5817c2.4055-1.8475 3.3868-1.7928 3.3868 0.18875 0 1.002-0.52615 1.3949-1.3976 1.0437-0.76871-0.30982-1.6685-0.10304-1.9995 0.45955-0.33102 0.56257-0.87962 0.73111-1.2191 0.37455-0.33946-0.35656 0.21376-1.2865 1.2294-2.0665zm45.936 0.6583c-0.42363-0.042091-0.48741-0.55719-0.14171-1.1447 0.34569-0.5875 1.1756-0.84765 1.8443-0.57814 1.5719 0.63356 3.352-1.2536 3.352-3.5537 0-0.99 0.64265-1.8 1.4281-1.8 1.8044 0 1.8794 2.8809 0.093826 3.6006-0.73387 0.29577-1.5426 1.3743-1.7971 2.3966-0.28961 1.1632-1.1264 1.7273-2.236 1.5073-0.97525-0.19333-2.1198-0.38594-2.5434-0.42801zm-39.14-1.4276c0.32901-0.90055 0.97748-1.3912 1.441-1.0902 0.46358 0.3009 0.31157 1.1529-0.33777 1.8934-1.4606 1.6656-1.8908 1.3525-1.1033-0.80314zm51.376-6.718c0.81615-1.387 1.3874-1.1284 1.3874 0.62812 0 0.85746-0.43542 1.2764-0.96761 0.9309-0.53218-0.34545-0.72113-1.047-0.41985-1.559zm2.9346-2.1331c0.61102-1.0384 3.2133-1.0366 3.2133 0.002258 0 0.44-0.51172 1.3375-1.1372 1.9944-0.88152 0.92589-1.2955 0.92539-1.8413-0.002258-0.38728-0.65817-0.49292-1.5557-0.23474-1.9944v-8e-6zm-2.0232-1.7978c0.32362-0.54999 0.77734-1 1.0083-1 0.23091 0 0.41985 0.45001 0.41985 1 0 0.55001-0.45374 1-1.0083 1-0.55455 0-0.74348-0.44999-0.41985-1zm-8.4675-1.5835c-0.35582-0.97391-0.14304-1.4311 0.5527-1.1875 1.4232 0.49828 2.2068 2.771 0.9554 2.771-0.51125 0-1.1899-0.7126-1.5081-1.5836zm-0.1012-4.4165c0.32364-0.54999 0.1347-1-0.41985-1s-1.0083-0.63286-1.0083-1.4064c0-2.0855 3.5361-0.79513 4.1072 1.4988 0.34828 1.3989-0.024048 1.9075-1.3963 1.9075-1.0292 0-1.6064-0.44999-1.2828-1zm-76.88-1.695c-2.2969-0.48687-3.8102-2.3143-1.9042-2.2994 2.2794 0.017822 7.8547 2.2526 7.8547 3.1484 0 0.60077-0.72183 0.76667-1.6661 0.38298-0.91638-0.37236-2.8443-0.92676-4.2844-1.232zm63.075-1.305c0-0.54999 1.3106-1 2.9124-1 1.6992 0 2.6673 0.41658 2.324 1-0.32362 0.55001-1.6342 1-2.9124 1s-2.324-0.44999-2.324-1zm19.042-1c0-0.54999 0.42844-1 0.95209-1 0.52364 0 0.95207 0.45001 0.95207 1 0 0.55001-0.42844 1-0.95207 1-0.52365 0-0.95209-0.44999-0.95209-1zm-48.556-2.118c0-0.55 0.42844-0.72189 0.95209-0.38197 0.52364 0.33992 0.95207 1.068 0.95207 1.618 0 0.54999-0.42844 0.72188-0.95207 0.38196-0.52365-0.33992-0.95209-1.068-0.95209-1.618zm55.221-5.382c0-0.82499 0.42842-1.5 0.95207-1.5 0.52364 0 0.95207 0.67501 0.95207 1.5 0 0.82501-0.42844 1.5-0.95207 1.5-0.52365 0-0.95207-0.67499-0.95207-1.5zm3.8083-5.559c0-0.58245 0.42844-0.78091 0.95209-0.44099 0.52364 0.33992 0.95207 0.81649 0.95207 1.059 0 0.24254-0.42844 0.44098-0.95207 0.44098-0.52365 0-0.95209-0.47655-0.95209-1.059zm-13.329-1.5c0-0.24253 0.42844-0.44099 0.95207-0.44099 0.52365 0 0.95209 0.47657 0.95209 1.059 0 0.58246-0.42844 0.7809-0.95209 0.44098-0.52364-0.33992-0.95207-0.81647-0.95207-1.059zm18.104-5.75c-0.008575-1.6511 0.38429-2.5501 0.95303-2.1809 0.53218 0.34546 0.70952 1.0667 0.39407 1.6028-0.31544 0.5361-0.071335 1.6103 0.54248 2.3871 0.6138 0.77681 0.81134 1.9302 0.439 2.563-0.97217 1.6522-2.3104-0.86033-2.3286-4.372zm-11.007-0.1455c-2.6261-2.7583-3.011-4.0311-0.97032-3.2086 0.75165 0.30296 1.6046 0.013603 1.8954-0.643 0.29082-0.6566 0.30572-0.23461 0.033142 0.93775-0.31548 1.3568 0.033798 2.345 0.96086 2.7186 0.80107 0.32287 1.4565 1.0512 1.4565 1.6184 0 1.5966-0.83604 1.2442-3.3756-1.4232zm-9.5167-1.612c-1.0091-1.715-0.10542-1.8833 1.8888-0.35171 1.5444 1.1861 1.5922 1.4182 0.29271 1.4182-0.85464 0-1.8363-0.47993-2.1815-1.0665zm12.892-4.9335c0-0.54999 0.42844-1 0.95207-1 0.52365 0 0.95209 0.45001 0.95209 1 0 0.55001-0.42844 1-0.95209 1-0.52364 0-0.95207-0.44999-0.95207-1zm-5.4943-2.1875c0.58844-1.8542 2.638-2.1618 2.638-0.39584 0 0.87084-0.67836 1.5833-1.5075 1.5833-0.82912 0-1.3379-0.53436-1.1306-1.1875zm-21.379-0.8457l-3.1173-2.0332 2.6803 0.4788c1.8102 0.32338 2.5571 0.090698 2.3009-0.71682-0.20871-0.65757-0.84358-1.1956-1.4109-1.1956-0.56728 0-1.3527-0.33751-1.7455-0.75-0.39273-0.41251 0.013443-0.75 0.90262-0.75s1.8624-0.67243 2.1626-1.4943c0.94812-2.5952 2.2138-0.56255 1.6133 2.5909-0.47723 2.5063-0.2312 3.1135 1.4486 3.5749 2.1595 0.59314 1.8849 2.3284-0.36847 2.3284-0.7419 0-2.7517-0.91493-4.4662-2.0332zm16.271-4.2311c0.80699-0.84761 1.0813-0.70448 1.0813 0.56429 0 0.935 0.45372 1.7 1.0083 1.7 0.55454 0 0.74144 0.45345 0.41533 1.0077-0.36505 0.62041-1.1681 0.40353-2.0896-0.56427-1.117-1.1732-1.2223-1.8601-0.41534-2.7077zm-11.281-0.6407c0.008011-0.32726 0.43645-1.27 0.95207-2.095 0.82382-1.3181 1.0469-1.3213 1.8393-0.02639 0.60019 0.98072 0.52057 1.7588-0.23802 2.3261-0.87816 0.65681-0.86664 0.96896 0.050262 1.3597 0.65456 0.27898 1.1901 0.98946 1.1901 1.5789 0 0.5894-0.85687 0.25717-1.9042-0.73832s-1.8976-2.0777-1.8896-2.405zm7.126-0.095c0.94778-1.1 2.1924-1.9645 2.7658-1.921 0.60178 0.04557 0.5394 0.29217-0.14757 0.58333-0.65456 0.27741-1.1901 1.1419-1.1901 1.921 0 0.77918-0.70904 1.4167-1.5757 1.4167-1.417 0-1.4021-0.20142 0.14757-2zm7.5303-1.7426c0.66026-0.69349 2.4666 0.71554 2.4666 1.9241 0 0.66311-0.5463 0.58724-1.4511-0.20151-0.79811-0.69573-1.255-1.4709-1.0154-1.7226zm-27.286 0.3396c-2.0594-2.3522-2.1516-3.7299-0.19694-2.9421 0.80803 0.32569 1.233 0.84019 0.9444 1.1433-0.28862 0.30315 0.65688 1.3957 2.1011 2.428 2.1033 1.5033 2.2469 1.8168 0.72172 1.5753-1.0473-0.16584-2.6539-1.1579-3.5703-2.2045zm-17.376-0.597c0.32364-0.55 0.77736-1 1.0083-1 0.23091 0 0.41986 0.45 0.41986 1s-0.45372 1-1.0083 1c-0.55455 0-0.7435-0.45-0.41988-1zm36.655-3.559c0-0.24254 0.42842-0.44098 0.95207-0.44098 0.52364 0 0.95207 0.47656 0.95207 1.059 0 0.58246-0.42844 0.7809-0.95207 0.44098-0.52365-0.33992-0.95207-0.81647-0.95207-1.059zm6.6646-2.941c0-0.825 0.64264-1.5 1.4281-1.5 2.4777 0 1.6748 1.9708-1.1901 2.921-0.13092 0.043419-0.23802-0.59605-0.23802-1.421zm-9.6993-3.1831c0.68729-0.28887 1.5084-0.25336 1.8248 0.078938 0.31636 0.33229-0.24597 0.56864-1.2496 0.52522-1.1091-0.047981-1.3347-0.28494-0.57523-0.60416zm3.2909-3.0099c0.92633-0.25354 2.2116-0.23687 2.8562 0.037048 0.64458 0.27393-0.11334 0.48136-1.6842 0.46099-1.571-0.02039-2.0983-0.2445-1.172-0.49804zm-26.914-0.307c-1.2307-0.8354-1.2056-0.97149 0.18185-0.9847 0.88545-0.008411 1.8747 0.4347 2.1984 0.9847 0.7447 1.2656-0.51567 1.2656-2.3802 0zm24.17-4.5965c0.059204-0.70752-0.3208-1.3128-0.84444-1.345-0.52365-0.032211-0.96243 0.50394-0.97505 1.1914-0.012634 0.6875-0.86951 1.1081-1.9042 0.93464-1.0347-0.17345-2.9523-0.29039-4.2614-0.25988-1.8797 0.043812-2.0799-0.14951-0.95209-0.91933 0.78546-0.53614 2.3708-0.98169 3.523-0.99012 1.1522-0.008419 2.5695-0.80282 3.1495-1.7653 0.75526-1.2532 1.1966-1.3952 1.5548-0.5 0.27507 0.6875 1.1071 1.25 1.8489 1.25 0.74182 0 1.3488 0.9 1.3488 2s0.4537 2 1.0083 2c0.55454 0 0.74889 0.44079 0.43188 0.97952-0.76688 1.3033-4.0713-0.8637-3.928-2.576v-8e-6zm-17.506 1.5965c0-0.55 0.64264-1 1.4281-1s1.4281 0.45 1.4281 1-0.64265 1-1.4281 1c-0.78548 0-1.4281-0.45-1.4281-1zm-3.4315-4.7292c0.31638-0.33229 0.5414 0.25835 0.50005 1.3125-0.04567 1.165-0.27129 1.4019-0.57521 0.60418-0.27501-0.72187-0.24121-1.5844 0.075165-1.9167zm13.904-6.3298c0-0.58246 0.42844-0.7809 0.95207-0.44098 0.52365 0.33992 0.95209 0.81648 0.95209 1.059 0 0.24254-0.42844 0.44098-0.95209 0.44098-0.52364 0-0.95207-0.47656-0.95207-1.059zm-19.617-8.6701c0.31638-0.33229 0.5414 0.25834 0.50006 1.3125-0.045685 1.165-0.27129 1.4019-0.57523 0.60418-0.27502-0.72188-0.24121-1.5844 0.075165-1.9167zm11.048-4.3889c0-0.55 0.42842-0.72189 0.95207-0.38197 0.52364 0.33992 0.95207 1.068 0.95207 1.618s-0.42844 0.72189-0.95207 0.38197c-0.52365-0.33992-0.95207-1.068-0.95207-1.618zm-15.2-3.8162c-1.4636-2.8725-1.2069-3.2452 0.91858-1.3337 2.043 1.8373 2.4745 3.268 0.98558 3.268-0.50522 0-1.3621-0.87042-1.9042-1.9342zm-56.484 124.62c-0.45251-1.2386-0.10648-1.5882 1.3994-1.414 3.3221 0.38425 3.103-2.1812-0.31531-3.6909-1.7423-0.76946-3.4934-1.1877-3.8913-0.92937-0.39793 0.2583-0.72351-0.00692-0.72351-0.58938 0-0.58245-0.42843-1.059-0.95208-1.059-1.5665 0-1.0809 1.9038 0.95208 3.732 1.0473 0.94185 1.9042 2.2609 1.9042 2.9312s0.50125 1.5441 1.1139 1.9418c0.74643 0.48454 0.91555 0.18028 0.51272-0.92236zm17.415-3.0602c0-0.20764-0.64264-0.93774-1.4281-1.6224-1.1696-1.0196-1.4281-0.95123-1.4281 0.37756 0 0.89233 0.64265 1.6224 1.4281 1.6224 0.78548 0 1.4281-0.16989 1.4281-0.37756zm-52.649-1.7285c4.288-1.3025 4.9568-2.9918 1.0677-2.6968-1.7397 0.13194-3.9936 1.0416-5.0087 2.0214-2.0914 2.0187-1.062 2.1951 3.941 0.67545v-1.5e-5zm99.602-1.1891l2.6815-1.2049-2.9645-2.9824c-2.4725-2.4874-3.1127-2.7364-3.857-1.5-0.49083 0.81533-0.899 2.0449-0.90701 2.7324-0.018616 1.5966 1.6089 1.6345 2.112 0.049263 0.28909-0.91094 0.54742-0.91802 1.0704-0.029312 0.4344 0.73826-0.20523 1.4072-1.7298 1.8091-1.3305 0.35075-2.4191 1.0389-2.4191 1.5293 0 1.2288 2.7991 1.041 6.0138-0.40351zm86.627-0.3419c0.32776-0.34425 0.16275-1.4761-0.3667-2.5151-0.52942-1.0391-0.789-2.2174-0.57684-2.6185 0.21216-0.40113-0.51779-2.4974-1.6221-4.6585-2.0766-4.0636-7.5429-8.1131-9.3598-6.9337-0.58147 0.37747-0.76431 0.21189-0.41731-0.37787 0.33972-0.57733-0.057556-1.3219-0.88284-1.6545-2.3043-0.92874-6.2838-0.71733-5.684 0.30197 0.29346 0.49871-0.25214 0.69094-1.2124 0.42718-2.8431-0.78091-9.6816 8.4471-9.6816 13.064 0 0.75965 1.2197 1.2682 3.0414 1.2682 1.6727 0 3.208 0.52501 3.4116 1.1667 0.20364 0.64167 0.78825 1.1667 1.2992 1.1667 0.51091 0 0.66414-0.44999 0.34052-1-0.32364-0.54999-0.13496-1 0.41927-1 0.56253 0 0.9028-1.55 0.77025-3.5087-0.15738-2.3257-0.6387-3.3478-1.4275-3.0314-0.65456 0.2625-1.1901 0.089546-1.1901-0.38435 0-0.81274 1.4659-1.709 3.1283-1.9126 0.41144-0.050369 1.4206-0.79795 2.2425-1.6613 1.8074-1.8984 4.2532-1.2326 7.6622 2.0858 1.3743 1.3378 2.6968 2.2243 2.9389 1.97 0.70129-0.73661 2.4354 1.6046 4.5825 6.1869 1.0938 2.3344 2.257 3.9628 2.5847 3.6185zm-95.497-3.3039c0-0.58245-0.42844-1.059-0.95206-1.059-0.52365 0-0.95209 0.19844-0.95209 0.44099 0 0.24254 0.42844 0.71909 0.95209 1.059 0.52362 0.33992 0.95206 0.14148 0.95206-0.44098zm-113.37-0.4757c0.041351-1.0542-0.18367-1.6448-0.50003-1.3125-0.31637 0.3323-0.35019 1.1948-0.075161 1.9167 0.30391 0.79773 0.52952 0.56079 0.57519-0.60416zm-2.305-1.5833c-0.32364-0.54999-1.0168-1-1.5405-1-0.52363 0-0.6873 0.45001-0.36366 1 0.32362 0.55001 1.0169 1 1.5405 1 0.52363 0 0.68728-0.44999 0.36366-1zm116.63-4c0-0.54999-0.42842-1-0.95207-1-0.52364 0-0.95206 0.45001-0.95206 1 0 0.55001 0.42842 1 0.95206 1 0.52365 0 0.95207-0.44999 0.95207-1zm-27.61 0c0-0.54999-0.66794-1-1.4843-1s-1.2195 0.45001-0.8959 1c0.32365 0.55001 0.99158 1 1.4843 1 0.49275 0 0.89589-0.44999 0.89589-1zm-81.879-0.0752c0-0.55684 0.53554-0.9394 1.1901-0.85012 2.2734 0.31008 3.5703-0.080269 3.5703-1.0747 0-0.54999-0.66794-1-1.4843-1s-1.2311-0.43034-0.92157-0.95633c0.30948-0.52597 1.2619-0.6745 2.1165-0.33005 1.0763 0.4338 1.3305 0.24675 0.82717-0.60864-0.39966-0.6792-1.8626-1.1098-3.251-0.95678-1.3884 0.15296-3.0802-0.08268-3.7595-0.52365-0.67932-0.44098-1.8573-0.55101-2.6176-0.24454-1.8306 0.73781-1.7923 4.62 0.045578 4.62 0.78548 0 1.4281 0.40187 1.4281 0.89302s0.64265 1.152 1.4281 1.4686c0.78548 0.31658 1.4281 0.12 1.4281-0.43686zm-4.7604-4.9838c0-0.58247 0.42845-0.78091 0.95209-0.44099 0.52365 0.33992 0.95207 0.81649 0.95207 1.059 0 0.24254-0.42842 0.44098-0.95207 0.44098-0.52364 0-0.95209-0.47655-0.95209-1.059zm23.365 3.9925c0.34516-0.58658 0.42338-1.281 0.17381-1.5431-0.24956-0.26214-0.70744 0.21781-1.0176 1.0665-0.64377 1.7621-0.095055 2.0721 0.84374 0.4766zm92.789-2.3745c0-0.24253-0.42845-0.7191-0.9521-1.059-0.52364-0.33992-0.95209-0.14148-0.95209 0.44099 0 0.58246 0.42845 1.059 0.95209 1.059 0.52365 0 0.9521-0.19844 0.9521-0.44098zm19.042-5.559c0-0.54999-0.42845-1-0.95209-1-0.52365 0-0.95207 0.45001-0.95207 1 0 0.55001 0.42842 1 0.95207 1 0.52364 0 0.95209-0.44999 0.95209-1zm-119.49 0.0065c1.5709-0.36953 4.3558-1.5296 6.1885-2.5779 3.2513-1.8596 3.8595-2.0751 6.5298-2.3132 0.89256-0.079613 1.1082-0.89002 0.69595-2.6154-0.3445-1.4416-0.18668-2.5 0.37282-2.5 0.53363 0 0.9702 0.67501 0.9702 1.5 0 0.82501 0.64267 1.5 1.4281 1.5 0.86918 0 1.4281-0.93095 1.4281-2.3787 0-2.7017 2.0427-3.7929 10.711-5.7215 3.4123-0.75924 5.4744-1.7303 5.4744-2.578 0-1.3793-3.4377-1.0066-6.6747 0.72358-0.79105 0.42283-2.6359 0.52829-4.0997 0.23439-2.8901-0.58029-7.9697 1.7424-11.828 5.4084-1.8515 1.7592-3.2214 2.1226-6.9878 1.8535-2.5767-0.18409-4.6848 0.0793-4.6848 0.58532 0 0.50604-1.4995 0.74649-3.3323 0.53436-2.5781-0.29841-3.3356-0.020828-3.3468 1.2264-0.011688 1.2917-0.17802 1.3412-0.83684 0.24899-0.69419-1.1509-0.89495-1.1509-1.2892 0-0.38345 1.1195-0.83336 1.1357-2.5174 0.090286-1.458-0.90507-2.5744-0.97834-3.8637-0.25358-0.9973 0.5606-2.3949 0.78483-3.1058 0.49833-1.1599-0.46752-5.51 2.8061-5.51 4.1465 0 0.29728 1.1782 0.27964 2.6182-0.039192 1.44-0.31884 4.9746 0.14685 7.8546 1.0348 6.245 1.9255 9.9502 2.2992 13.805 1.3924zm121.39-4.0065c0-0.54999-0.42845-1-0.95209-1-0.52365 0-0.95207 0.45001-0.95207 1 0 0.55001 0.42842 1 0.95207 1 0.52364 0 0.95209-0.44999 0.95209-1zm-124.06-10.318c0.26483-0.45011 1.1215-0.56044 1.9036-0.24518 0.78216 0.31524 3.5588-0.55409 6.1704-1.9318 2.6116-1.3778 5.298-2.505 5.9698-2.505 0.67181 0 2.293-0.88525 3.6026-1.9672s2.7214-1.6445 3.1373-1.25c0.4159 0.39449 0.37938 0.042252-0.081139-0.78276-0.46054-0.82499-0.71279-2.5125-0.56056-3.75 0.33264-2.7041-1.1798-2.9387-2.8998-0.44976-0.68423 0.99015-2.1505 2.4526-3.2583 3.25-1.1078 0.79737-1.9647 1.8712-1.9042 2.3862 0.060532 0.51504-1.3895 1.3309-3.2222 1.8131-1.8327 0.48217-3.7607 1.4108-4.2844 2.0636-0.52364 0.6528-3.4474 1.2428-6.4972 1.3111-3.0498 0.068298-6.0274 0.6308-6.617 1.25-0.79442 0.83439-0.71452 1.1457 0.30867 1.2028 0.75928 0.042328 2.8138 0.15491 4.5656 0.25019 1.7518 0.095268 3.4018-0.19505 3.6666-0.64514zm114.54-6.064c0-0.82501-0.42845-1.7781-0.95207-2.118-0.52365-0.33992-0.95209 0.056984-0.95209 0.88197 0 0.825 0.42844 1.7781 0.95209 2.118 0.52362 0.33992 0.95207-0.056946 0.95207-0.88196zm-136.71-8.2777c1.5236-3.5304 4.8439-9.737 7.3786-13.792 2.5347-4.0553 4.6085-7.8626 4.6085-8.4607 0-0.59809 0.34955-1.0874 0.77678-1.0874 0.4272 0 1.6871-1.6875 2.7997-3.75 2.5668-4.7582 4.5219-7.4207 9.2766-12.633 6.1191-6.7078 7.0365-8.4767 1.8984-3.6603-2.615 2.4513-5.3528 5.3763-6.084 6.5-0.73116 1.1237-1.8022 2.497-2.3802 3.0519-2.0623 1.9798-7.2393 10.576-7.2393 12.02 0 0.80891-0.43903 1.4708-0.97563 1.4708s-1.3998 1.0125-1.9183 2.25c-0.51845 1.2375-1.7826 3.6-2.8091 5.25-3.572 5.7412-8.6838 16.683-8.3939 17.967 0.16052 0.71083 1.5384-1.5961 3.062-5.1266zm137.58 1.1597c-0.099136-1.8942-1.6859-5.0838-1.7412-3.5-0.028793 0.82501 0.36296 2.175 0.87058 3 0.5076 0.82501 0.89937 1.05 0.87058 0.5zm-17.726-0.2337c0.2276-0.42147-0.34451-2.0545-1.2714-3.629-1.6201-2.752-1.7248-2.785-2.7082-0.85501-0.75551 1.4828-0.71704 2.2559 0.1471 2.957 2.2408 1.818 3.4214 2.2884 3.8326 1.527v-8e-6zm1.6219-5.2029c0-0.64981 0.42842-0.90335 0.95206-0.56343 0.52365 0.33992 0.95207-0.083519 0.95207-0.94098 0-0.87655-0.80894-1.559-1.848-1.559-2.4842 0-3.2147 1.4916-1.4738 3.0091 1.0611 0.92494 1.4176 0.93861 1.4176 0.054291zm14.281-2.4564c0-0.21615-0.64265-0.65204-1.4281-0.96862-0.78546-0.31659-1.4281-0.13973-1.4281 0.393 0 0.53275 0.64265 0.96862 1.4281 0.96862 0.78546 0 1.4281-0.17685 1.4281-0.393zm-27.61-17.984c0-0.20765-0.74976-0.99516-1.6661-1.75-1.5101-1.2439-1.5437-1.2085-0.35945 0.37756 1.2438 1.6658 2.0256 2.1955 2.0256 1.3724zm-5.7124-6.5634c0-0.51755-0.42845-1.2191-0.9521-1.559-0.52364-0.33992-0.95209 0.083519-0.95209 0.94098s0.42845 1.559 0.95209 1.559c0.52365 0 0.9521-0.42344 0.9521-0.94098zm-3.8083-0.618c0-0.85746-0.42844-1.2809-0.95209-0.94098-0.52364 0.33992-0.95207 1.0415-0.95207 1.559 0 0.51754 0.42844 0.94098 0.95207 0.94098 0.52365 0 0.95209-0.70156 0.95209-1.559zm-67.598-0.441c0-0.55-0.18894-1-0.41985-1-0.2309 0-0.68465 0.45-1.0083 1-0.32362 0.55-0.13471 1 0.41985 1s1.0083-0.45 1.0083-1zm74.044-8.1875c-0.20729-0.65313-0.88592-1.3657-1.5081-1.5836-0.69574-0.24358-0.90851 0.21358-0.55269 1.1875 0.66408 1.8177 2.632 2.1959 2.0608 0.39606zm-7.3985 0.1561c0-0.53273-0.64264-0.96861-1.4281-0.96861s-1.4281 0.17685-1.4281 0.39301 0.64265 0.65203 1.4281 0.96862c0.78548 0.31657 1.4281 0.13972 1.4281-0.39303v1.1e-5zm10.908-0.8995c0.30128-0.512 0.11235-1.2136-0.41985-1.559-0.53217-0.34546-0.96762 0.073441-0.96762 0.9309 0 1.7565 0.57132 2.0152 1.3875 0.62812zm-9.6291-4.5192c1.4439-1.3032 2.2714-2.5992 1.8389-2.88-0.84567-0.54895-5.5513 4.1076-4.872 4.8212 0.22424 0.23554 1.5891-0.63801 3.0331-1.9412zm-63.375-5.1187c1.7166-1.8872 2.7432-3.4313 2.2812-3.4313-1.2188 0-5.8784 4.7181-5.8784 5.9522 0 1.4176 0.040237 1.3894 3.5972-2.521zm94.775-0.1347c0.99898-0.2713 1.5219-1.0576 1.2317-1.852-0.80791-2.2114 1.4808-2.9293 2.8892-0.90621 1.1482 1.6493 1.2837 1.6654 1.2837 0.15278 0-0.93012-0.42844-1.6911-0.95207-1.6911-0.52365 0-0.95209-0.63288-0.95209-1.4064 0-2.745-3.3792-0.47015-4.4025 2.9637-0.56424 1.8935-0.98271 3.3905-0.92993 3.3267 0.05278-0.06381 0.87718-0.32816 1.832-0.58747zm-2.5564-1.7965c0.9733-2.664-0.42784-4.5-3.4341-4.5-3.4734 0-3.5086 0.19144-0.63475 3.4485 2.5987 2.9452 3.3099 3.129 4.0689 1.0515zm-19.649 0.5c0-0.55-0.42842-1-0.95209-1-0.52362 0-0.95207 0.45-0.95207 1s0.42845 1 0.95207 1c0.52367 0 0.95209-0.45 0.95209-1zm9.5208-1.893c0-1.0412-0.64265-2.152-1.4281-2.4686-0.78546-0.31658-1.4281-0.13972-1.4281 0.39301 0 0.53274 0.47429 0.96862 1.054 0.96862 0.57965 0 0.80733 0.675 0.50592 1.5-0.30144 0.825-0.13304 1.5 0.37416 1.5 0.50722 0 0.9222-0.85186 0.9222-1.893zm-4.7604-0.048c0-0.58246-0.42845-1.059-0.9521-1.059-0.52364 0-0.95209 0.19844-0.95209 0.44098s0.42845 0.7191 0.95209 1.059c0.52365 0.33992 0.9521 0.14148 0.9521-0.44098zm-4.5752-0.7377c0.90001-0.24916 1.3908-1.0558 1.11-1.8243-0.39249-1.0743-1.0032-1.1384-2.7736-0.29113-1.2487 0.59757-2.0442 1.4707-1.7679 1.9403 0.52501 0.89225 0.79192 0.90587 3.4315 0.17513zm-5.8977-1.7272c0-1.9809-1.8351-3.0668-3.0414-1.7997-0.6604 0.69364-0.32907 1.3813 1.035 2.148 1.6193 0.91023 2.0064 0.84301 2.0064-0.34834zm10.473-1.4841c0-0.66369 0.76045-2.8725 1.6899-4.9084 1.9715-4.3184 1.7626-7.3793-0.44296-6.4903-1.221 0.49213-1.418-0.04679-1.0914-2.9853 0.21922-1.9722 0.096268-3.3896-0.27324-3.1497-0.36948 0.23984-0.88876-0.12922-1.154-0.82015-0.30356-0.79082-0.51004-0.63876-0.55736 0.41044-0.041336 0.91666-0.61072 1.9009-1.2653 2.1872-0.84412 0.36918-0.65282 0.97485 0.65802 2.0833 1.8119 1.5322 1.8072 1.5628-0.23802 1.5628-2.7249 0-2.6874 1.5937 0.056046 2.3833 1.2344 0.35533 1.7387 0.93443 1.1901 1.3666-0.52362 0.41251-1.3964 1.65-1.9394 2.75-0.78984 1.5998-0.55173 2.4819 1.1901 4.4084 1.1976 1.3246 2.1775 1.8654 2.1775 1.2017zm-1.9042-5.1691c0-0.51754 0.42845-0.94098 0.95209-0.94098 0.52365 0 0.95209 0.70156 0.95209 1.559 0 0.85746-0.42844 1.2809-0.95209 0.94098-0.52364-0.33992-0.95209-1.0415-0.95209-1.559zm-4.6476 1.809c0.062027-0.6875 0.039398-1.6588-0.050247-2.1584s0.39516-1.2734 1.0774-1.7195c1.0127-0.66221 0.99805-1.2215-0.079437-3.0462-0.93753-1.5877-1.0065-2.3448-0.23802-2.6138 0.59497-0.20831 1.0818-0.74912 1.0818-1.2018 0-0.96244-3.7817-0.1326-5.3897 1.1827-0.67552 0.55255-1.3453 0.49638-1.7223-0.14443-0.33934-0.57671-1.3415-1.0417-2.2269-1.0332-1.3626 0.01295-1.3948 0.15825-0.2094 0.94563 2.1152 1.405 0.48772 2.3681-1.8147 1.0738-2.0461-1.1502-3.8702-0.6674-3.8702 1.0242 0 0.51754 0.87033 0.94098 1.934 0.94098s2.1571 0.61055 2.4298 1.3568c0.57271 1.5676 5.4158 1.3276 5.9304-0.29387 0.57484-1.8113 2.0828-1.1688 2.0828 0.8874 0 1.0727-0.74976 2.4144-1.6661 2.9817-1.4532 0.89955-1.4836 1.1596-0.23802 2.0344 1.9234 1.3508 2.8336 1.2845 2.969-0.21639zm-21.54-3.7561c-0.9507-1.1034-1.925-1.7998-2.165-1.5476-0.51567 0.54162 2.1983 3.5538 3.202 3.5538 0.38037 0-0.086212-0.90276-1.0369-2.0061zm-5.2312-0.4939c0-0.825-0.17917-1.5-0.39815-1.5-0.21901 0-1.183-0.25898-2.1422-0.57551-1.6451-0.54285-1.6484-0.511-0.057838 0.56147 0.92738 0.62533 1.4376 1.5593 1.1339 2.0755-0.30374 0.5162-0.098541 0.93854 0.45601 0.93854 0.55456 0 1.0083-0.675 1.0083-1.5zm-8.1193-0.4661c1.6676-0.63581 1.5878-0.77401-0.71406-1.2362-1.4254-0.2862-2.5916-0.15932-2.5916 0.28196 0 1.3308 1.3192 1.7116 3.3057 0.95423zm20.02-3.0339c0.32364-0.55 0.13469-1-0.41985-1-0.55455 0-1.0083 0.45-1.0083 1s0.18893 1 0.41986 1 0.68463-0.45 1.0083-1zm27.134-3.0936c0-0.49851-0.85687-0.90638-1.9042-0.90638s-1.9042 0.17252-1.9042 0.38337 0.85689 0.61872 1.9042 0.90638c1.0473 0.28765 1.9042 0.11514 1.9042-0.38337zm-2.5389-2.5731c0.34909-0.36666 0.63472-1.1317 0.63472-1.7 0-0.6266-0.44347-0.56756-1.1266 0.15-0.61968 0.65084-0.90529 1.4158-0.63474 1.7 0.27057 0.28417 0.77753 0.21667 1.1266-0.15zm-8.8861-2.3333c0-0.55-0.42842-1-0.95207-1-0.52362 0-0.95207 0.45-0.95207 1s0.42845 1 0.95207 1c0.52365 0 0.95207-0.45 0.95207-1z" fill="#3f3f3f"/>
</svg>
